<svg id="Layer_1" data-name="Layer 1" xmlns="http://www.w3.org/2000/svg" viewBox="0 0 1381 313"><defs><style>.cls-1{fill:#fcfcfc;fill-rule:evenodd;}</style></defs><path class="cls-1" d="M691.5,312.5h-42Q543.006,294.248,530,186.5,523.0175,95.885,590.5,36q74.1225-56.733,162-24a224.8,224.8,0,0,1,25,13.5q-7.4115,35.8086-15,71.5a62.6873,62.6873,0,0,1-12-8q-40.4535-24.6315-86-11Q615.822,95.6771,606,146.5q-6.73,36.0585,14,66,26.031,29.436,65.5,27a170.1749,170.1749,0,0,0,61-10q-4.8975,36.0375-10.5,72a68.8374,68.8374,0,0,1-17.5,6.5Q704.838,310.61,691.5,312.5Z"/><path class="cls-1" d="M901.5.5q66.018-5.4186,112.5,41,34.7849,42.8472,34.5,98.5-1.155,78.528-57,133-78.3075,65.6115-170,20Q766.843,255.9905,761,189.5,753.9305,98.17,820.5,36A159.07,159.07,0,0,1,901.5.5Zm12,67q51.8445,3.0908,62.5,54,7.554,59.0745-31.5,103.5-42.6975,37.626-89,5-22.3335-23.9895-21-57,.2895-53.556,39-90A76.2185,76.2185,0,0,1,913.5,67.5Z"/><path class="cls-1" d="M141.5,5.5q41.0115-.5,82,1,34.3425,147.9615,68.5,296,5.253-32.5185,10.5-65,105.996-1.5,212-1-5.2215,35.0505-11,70-141.4965,1.5-283,1-6.3855-29.4255-12-59-54.009-.5-108,1-11.5863,28.6725-24,57-37.9869,1.5-76,1a141.91,141.91,0,0,1,8.5-21Q75.2709,145.96,141.5,5.5Zm30,73q11.7345,51.1635,22,103-32.016.5-64-1Q151.358,129.794,171.5,78.5Z"/><path class="cls-1" d="M336.5,5.5h212q-4.719,35.5368-10,71h-212Q331.663,41.0223,336.5,5.5Z"/><path class="cls-1" d="M1380.5,284.5v23h-75q1.665-85.989.5-172l-85.5,171q-19.98,1.4985-40,1-14.31-86.367-31.5-172-25.2151,85.896-49.5,172-38.01.5-76-1,47.415-150.2565,93-301,34.515-.5,69,1,17.115,83.084,35,166,43.14-82.7655,85.5-166,34.14-1.491,68.5-1Q1377.3952,145.231,1380.5,284.5Z"/><path class="cls-1" d="M319.5,121.5q93.5055-.4995,187,1-5.5755,34.281-11,68.5-92.9985.75-186,.5Q314.081,156.4375,319.5,121.5Z"/></svg>