<svg id="Layer_1" data-name="Layer 1" xmlns="http://www.w3.org/2000/svg" viewBox="0 0 1547 542"><defs><style>.cls-1{fill:#fff;fill-rule:evenodd;}</style></defs><path class="cls-1" d="M1237.5-.5h1q38.985,65.9693,76.5,133,11.7,20.907,22.5,42-99,.5-198-1Q1188.5349,86.4175,1237.5-.5Z"/><path class="cls-1" d="M183.5,541.5H-.5v-3q31.4708-185.8215,63-372,90.996-1.75,182-.5,53.229,1.077,96,32,32.8905,30.027,38.5,74.5,9.7335,102.567-46,189Q293.5875,516.856,227.5,534A337.2766,337.2766,0,0,1,183.5,541.5Zm-20-288a301.11,301.11,0,0,1,59,3.5q36.186,6.1845,40.5,42.5a212.7842,212.7842,0,0,1-14,94q-24.0645,57.423-86.5,59.5-15.9915.75-32,.5Q147,353.4965,163.5,253.5Z"/><path class="cls-1" d="M647.5,541.5h-274q31.407-186.939,62.5-374,57.9195-2.985,116.5-2l-48,288h158Q655.6405,497.663,647.5,541.5Z"/><path class="cls-1" d="M794.5,541.5h-116q31.569-187.4175,62.5-375,137.1435-1.4985,274.5-1-7.095,43.866-15,87.5-78.999.75-158,.5-5.175,34.053-11,68,63.0075-.5,126,1-7.7325,42.8955-14.5,86-63.141,1.4955-126.5,1Q806.14,475.659,794.5,541.5Z"/><path class="cls-1" d="M1132.5,186.5q48,83.0565,95,167-94.995,2-190,0Q1084.6452,269.7145,1132.5,186.5Z"/><path class="cls-1" d="M1147.5,186.5q91.5-.25,183,.5-46.32,80.385-91.5,161.5Q1192.08,268.148,1147.5,186.5Z"/><path class="cls-1" d="M1343.5,186.5a21.107,21.107,0,0,1,5.5,7q44.955,80.193,90.5,160-94.995,2-190,0Q1296.585,269.9485,1343.5,186.5Z"/><path class="cls-1" d="M1129.5,541.5h-198q48.8655-87.6405,98.5-175Q1080.55,453.5945,1129.5,541.5Z"/><path class="cls-1" d="M1045.5,366.5h182q-43.05,79.581-88.5,158a4.9486,4.9486,0,0,0-.5,3,4.9389,4.9389,0,0,1-3-.5q-44.055-77.8725-88.5-155.5A8.7813,8.7813,0,0,1,1045.5,366.5Z"/><path class="cls-1" d="M1254.5,366.5q89.01-.5,178,1-45.75,80.5-91.5,161-46.125-79.755-91.5-160Q1252.185,367.495,1254.5,366.5Z"/><path class="cls-1" d="M1545.5,541.5h-198q48.72-87.447,99-174,11.985,17.946,22.5,37Q1508.045,472.597,1545.5,541.5Z"/><path class="cls-1" d="M1333.5,541.5h-190q47.3548-84.2025,95.5-168Q1287.42,456.8535,1333.5,541.5Z"/></svg>