<svg id="Layer_1" data-name="Layer 1" xmlns="http://www.w3.org/2000/svg" viewBox="0 0 3310 792"><defs><style>.cls-1{fill:#fff;fill-rule:evenodd;}</style></defs><path class="cls-1" d="M297.5,19.5h290v283h-149v-141h-141Z"/><path class="cls-1" d="M2238.5,19.5h141q-.2548,142.0005.5,284,56.79-77.268,153.5-76,137.955,4.5675,198.5,128,37.89,86.69,28,181-7.59,91.368-66,161-93.24,96.882-224.5,65.5-61.38-17.919-98.5-69.5-2.565,31.524-5.5,63h-133q4.065-53.4255,5.5-107Q2238.75,334.5,2238.5,19.5Zm243,336q105.9748-3.9135,130.5,99a214.3766,214.3766,0,0,1-8,116q-31.0349,70.956-109,73-96.69-5.181-117-100a212.8817,212.8817,0,0,1,9-118Q2414.4652,363.7825,2481.5,355.5Z"/><path class="cls-1" d="M866.5,227.5a294.0334,294.0334,0,0,1,135,21.5q74.88,35.3835,96.5,115.5a265.8909,265.8909,0,0,1,7,39q1.92,110.48,2,221a827.4443,827.4443,0,0,0,16.5,132q-66.51.4995-133-1-6.042-26.2485-9.5-53Q928.9215,762.1685,849.5,770a230.9168,230.9168,0,0,1-120-19Q659.096,714.0175,650,634.5,640.6685,479.436,793.5,451a362.477,362.477,0,0,1,43-5q65.52-3.084,131-6.5,5.8335-104.9145-99-95.5-34.8075,2.283-58.5,27.5a62.7552,62.7552,0,0,0-12.5,27h-133q14.001-89.304,90-137.5A254.91,254.91,0,0,1,866.5,227.5Zm89,311h12q11.87,116.6205-105,122a97.35,97.35,0,0,1-55-14.5q-19.257-16.524-18-42,.162-37.6635,35-52a125.73,125.73,0,0,1,21-6Q900.6535,541.3245,955.5,538.5Z"/><path class="cls-1" d="M1426.5,227.5q82.74-6.0015,157,30.5a197.0359,197.0359,0,0,1,41,29q-28.05,55.8435-56.5,111.5a218.4655,218.4655,0,0,0-116-40q-124.11,5.109-135,129a172.7177,172.7177,0,0,0,20,95q29.55,46.6755,84.5,55.5a185.1579,185.1579,0,0,0,81-7,385.6186,385.6186,0,0,0,72-31.5q23.91,52.8135,49.5,105a2.49,2.49,0,0,1,0,3A251.7952,251.7952,0,0,1,1518.5,761q-104.805,25.67-205-14Q1206.265,695.9085,1180,579.5q-24.72-105.1245,18-204,59.19-117.036,188.5-142.5Q1406.63,229.52,1426.5,227.5Z"/><path class="cls-1" d="M1882.5,227.5q87.45-5.8605,165,34.5,96.1352,58.242,117.5,169.5,17.58,91.32-13,179Q2105.3052,725.688,1985.5,760q-97.305,25.926-192-8Q1681.345,704.327,1649,586.5q-28.155-107.442,14-210,57.45-118.91,187.5-144.5Q1866.685,229.48,1882.5,227.5Zm9,128q104.43-4.3005,129.5,97a248.5078,248.5078,0,0,1,0,94q-29.085,107.949-140.5,94.5-60.765-12.2655-84.5-69.5a217.797,217.797,0,0,1-9-114q9.255-53.163,52.5-84.5A123.6135,123.6135,0,0,1,1891.5,355.5Z"/><path class="cls-1" d="M3007.5,227.5a367.2857,367.2857,0,0,1,162,26.5,215.0173,215.0173,0,0,1,48,28q-23.4151,51.8235-46,104a2.499,2.499,0,0,1-3,0A275.9672,275.9672,0,0,0,3029,343.5a86.6132,86.6132,0,0,0-57.5,15.5q-23.88,26.145,1,51a99.1363,99.1363,0,0,0,37,16q49.7248,10.044,99,22a219.11,219.11,0,0,1,87,46q42.72,44.343,41,106.5-1.53,73.299-58,119.5-54.2548,40.4325-122,48-101.0849,12.273-195-27a254.5748,254.5748,0,0,1-52-31,50.9614,50.9614,0,0,1-10-10q21.795-53.3175,45.5-105.5A373.4318,373.4318,0,0,0,2988.5,652a185.4556,185.4556,0,0,0,67-5,48.91,48.91,0,0,0,29.5-21.5q10.0349-28.0935-14.5-45.5a135.27,135.27,0,0,0-25-10q-53.64-11.427-107-24a198.6075,198.6075,0,0,1-91.5-51.5q-33.9748-41.163-32.5-95,3.66-108.39,103-151.5A307.98,307.98,0,0,1,3007.5,227.5Z"/><path class="cls-1" d="M438.5,394.5h149q.2505,57.5025-.5,115Q578.081,642.13,472.5,721q-96.5325,62.001-211,48Q139.682,755.5045,68,657.5q-44.7993-68.1525-48.5-150h149q4.287,50.31,39,86.5,32.844,29.1585,77,33,56.49,6.003,103-26,46.9815-40.218,50.5-102.5Q438.75,446.5025,438.5,394.5Z"/></svg>