<svg xmlns="http://www.w3.org/2000/svg" viewBox="0 0 841.8898 595.2756"><defs><style>.cls-1,.cls-2{fill:none;}.cls-1,.cls-2,.cls-3,.cls-4{stroke:#020202;stroke-miterlimit:10;}.cls-1{stroke-width:2.0206px;}.cls-2{stroke-width:5px;}.cls-4{stroke-width:1.0144px;}</style></defs><g id="Layer_1" data-name="Layer 1"><circle class="cls-1" cx="420.5" cy="297.6429" r="85.8624"/></g><g id="Layer_2" data-name="Layer 2"><line class="cls-2" x1="228.6752" y1="297.6429" x2="612.3248" y2="297.6429"/></g><g id="Layer_3" data-name="Layer 3"><path class="cls-3" d="M182.8783,298.1816c12.141-.9976,31.1169-3.3467,50.365-9.4161,4.9388-1.5573,10.4312-3.8849,21.416-8.54,7.2446-3.07,12.6629-5.5545,17.8686-10.9051a39.3693,39.3693,0,0,0,4.2044-5.1241s23.6061-113.781,145.2921-115.7518c0,0,115.4666-3.1971,144.3281,124.3357H526.1046s-16.68-79.3576-104.0332-80.7591c0,0-76.7552-4.292-104.3464,76.38,0,0-4.5985,22.2043,16.1606,28.7737v2.4635H182.8783Z"/></g><g id="Layer_4" data-name="Layer 4"><path class="cls-4" d="M660.8355,297.1109c-12.141,1.0264-31.1169,3.4436-50.365,9.6888-4.9388,1.6024-10.4313,3.9974-21.4161,8.7875-7.2446,3.1591-12.6628,5.7153-17.8686,11.221a40.3034,40.3034,0,0,0-4.2044,5.2725s-23.606,117.0766-145.292,119.1045c0,0-115.4667,3.29-144.3282-127.9371h40.248s16.68,81.6562,104.0332,83.0983c0,0,76.7551,4.4163,104.3463-78.5919,0,0,4.5986-22.8475-16.1605-29.6071v-2.5349H660.8355Z"/></g></svg>