<svg id="Layer_1" data-name="Layer 1" xmlns="http://www.w3.org/2000/svg" viewBox="0 0 1190.55115 841.88983"><defs><style>.cls-1,.cls-3{fill:#fff;stroke:#fff;stroke-miterlimit:10;}.cls-1,.cls-2{fill-rule:evenodd;}.cls-2{fill:#616161;}</style></defs><polyline class="cls-1" points="828.852 396.766 828.852 465.531 837.51 465.531 846.167 465.531 846.167 396.766 846.167 328.001 837.51 328.001 828.852 328.001 828.852 396.766"/><path class="cls-1" d="M868.93457,348.65525l.03068,20.65425H855.566l.00048,8.03908.00048,8.03908h13.35724l.01733,21.149c.02126,25.43416.42346,32.48035,2.17125,38.00778a28.2566,28.2566,0,0,0,14.879,17.32137c6.06911,3.00291,9.57268,3.64653,19.91219,3.65691l8.53379.00841v-15.723l-7.297-.23993c-8.06233-.26565-9.51978-.58475-13.48436-2.95393a15.27878,15.27878,0,0,1-6.48224-9.212c-.42647-1.61473-.66241-9.67113-.796-27.15527l-.18951-24.8593h26.765V369.1596l-10.76.22856c-5.91825.12515-11.92854.08756-13.35724-.08459l-2.59724-.03455V328.001H868.90389l.03068,20.65425"/><path class="cls-1" d="M798.71111,334.06123c-9.5801,5.83266-5.43737,20.59686,5.79258,20.64336a10.783,10.783,0,0,0,11.17657-11.12014,11.06157,11.06157,0,0,0-16.96915-9.52322"/><path class="cls-2" d="M1079.91909,333.39139c-9.13044,4.22731-7.83025,18.24648,1.95614,21.09157a11.23086,11.23086,0,0,0,13.30917-6.02312c2.78083-5.51555.12718-12.93525-5.46056-15.2698a15.2736,15.2736,0,0,0-9.80475.20135"/><path class="cls-1" d="M549.232,369.31741c-17.8576,2.85351-31.86838,16.704-36.023,35.61139-1.29911,5.91231-1.47176,11.24483-1.1497,35.49563l.33347,25.10666h16.60252l.192-26.83815c.20774-29.10641.21318-29.16727,3.12656-36.08879,4.96838-11.80483,14.88836-17.64986,29.02281-17.10172l5.31816.20679V368.75938l-6.55494-.0658a80.88623,80.88623,0,0,0-10.86785.62383"/><path class="cls-1" d="M103.29515,369.539c-11.44321,1.03-19.86816,6.26306-24.17463,15.01453a26.62715,26.62715,0,0,0-2.47059,18.18564c2.26924,10.7877,9.14525,17.91947,20.27529,21.02924,2.4429.6827,6.47085.88652,22.75678,1.15317,22.0345.36015,21.98305.35224,25.592,3.86866,4.81108,4.6879,4.23128,14.63756-1.073,18.41468-3.85877,2.74764-3.29083,2.70212-35.77366,2.88071l-30.05379.16524v15.28018h31.33509c29.34734,0,31.57207-.06084,35.07216-.95578,15.42118-3.94434,23.77391-17.70428,20.42124-33.64293-2.2168-10.53935-10.42607-18.2079-22.2685-20.80167-3.93147-.8613-6.39415-.97657-21.04507-.986-17.47127-.01139-20.90111-.35965-23.69772-2.40629a11.884,11.884,0,0,1-1.542-17.74187c3.62229-3.62279,3.49069-3.60893,34.4686-3.60893h27.39966v-15.8308H139.796c-10.29645,0-21.70551-.09548-25.354-.21223-3.648-.11676-8.66439-.0292-11.14685.19441"/><path class="cls-1" d="M178.30644,396.57756c-.001,29.92319.14741,31.93468,2.98707,40.52983,5.01835,15.18866,18.84607,26.804,35.1048,29.48883,5.38743.88948,15.75017.74057,20.53057-.29486a43.48424,43.48424,0,0,0,21.844-11.33139c8.23546-7.767,12.491-16.63966,14.03448-29.26324.54668-4.46675.62582-45.2939.10242-52.57459l-.25874-3.598-8.32255.135-8.32306.13506-.16523,27.70391c-.18352,30.76915-.17709,30.70631-3.8073,37.76092-3.2557,6.32736-9.23727,11.62079-15.36776,13.60112-15.50478,5.00748-30.96554-.77768-37.44428-14.01125-3.5006-7.15106-3.60053-8.2236-3.6-38.69048l.0005-26.85893H178.30692l-.00048,27.26806"/><path class="cls-1" d="M685.9963,398.7449l.16079,26.577a21.92173,21.92173,0,0,0,.767,5.61682l.52911,1.9468c5.28452,19.44469,19.82365,31.87285,39.96688,34.16486,15.88419,1.80718,31.10155-3.43875,40.92213-14.10673a44.71017,44.71017,0,0,0,11.1018-22.04242c1.07011-5.02034,1.10815-6.14036,1.14034-33.39309l.03364-28.19862H763.0572l-.00054,27.03258c-.001,22.94725-.12169,27.6198-.79992,30.91954-1.92348,9.35749-6.876,16.0549-14.78449,19.99182-15.34249,7.63738-33.57614,2.07927-40.76385-12.42569-3.34474-6.75036-3.47585-8.20629-3.49608-38.80377L703.195,369.3095H685.81773l.17857,29.4354"/><polyline class="cls-1" points="796.202 417.42 796.201 465.531 804.859 465.531 813.516 465.531 813.517 417.42 813.517 369.309 804.86 369.309 796.204 369.309 796.202 417.42"/><polyline class="cls-2" points="1076.208 417.42 1076.209 465.531 1084.866 465.531 1093.524 465.531 1093.524 417.566 1093.524 369.601 1084.866 369.455 1076.208 369.309 1076.208 417.42"/><path class="cls-1" d="M478.37531,438.32188a24.86031,24.86031,0,0,0-3.43476,3.14142,35.58622,35.58622,0,0,1-40.331,6.69989c-5.10346-2.51807-10.88165-7.99554-13.25281-12.56219-1.75671-3.38337-3.61041-8.75989-3.61041-10.47065V423.9752H498.525l-.28595-7.79169c-.54126-14.76965-4.76165-25.25061-13.8258-34.33654-4.68341-4.69379-12.01062-9.40644-16.94837-10.9-8.82165-2.668-20.03729-3.56842-27.20916-2.18469-14.1908,2.73877-24.68122,9.48071-32.21619,20.70569-9.42523,14.04047-10.90741,34.16534-3.6886,50.08569,8.046,17.74585,27.78559,28.99713,48.73468,27.77814,14.82007-.8623,26.70062-6.5188,35.83405-17.06165l2.51355-2.90148-6.359-4.52314C481.5766,440.35765,478.56232,438.32188,478.37531,438.32188Zm-57.40693-37.70355A29.85169,29.85169,0,0,1,440.0658,384.888c5.54968-1.494,16.07965-1.18139,21.15637.6283A28.8668,28.8668,0,0,1,476.726,398.4055c1.64936,2.75207,3.84888,8.66443,3.84888,10.34644,0,.21026-14.02509.38189-31.16693.38189-24.60651,0-31.1659-.13006-31.16144-.61834C418.25684,407.32713,419.6955,403.15275,420.96838,400.61833Z"/><path class="cls-1" d="M384.34332,398.43718a47.286,47.286,0,0,0-33.38318-28.92633c-4.90411-1.11414-15.96337-1.60834-20.80017-.92957-22.8894,3.21118-39.08087,20.5459-41.50793,44.439-.56543,5.56653-.75049,90.76593-.20575,94.73944l.31457,2.29547h16.93305l-.13159-29.54822-.13111-29.54816,3.29181,3.60694a37.95674,37.95674,0,0,0,16.26471,10.7135c22.77063,6.94226,47.33307-3.36359,57.76508-24.23645C389.13708,428.26884,389.73767,412.17833,384.34332,398.43718ZM353.34906,447.245a36.28616,36.28616,0,0,1-23.15942,2.67389c-11.37348-2.68036-20.91645-12.50086-23.52015-24.20331-1.076-4.8363-.81927-14.57623.48334-18.31329,4.22388-12.1214,12.92786-20.08979,24.29334-22.23975a36.18982,36.18982,0,0,1,21.82623,2.666c4.80267,2.248,11.20428,8.80738,13.68726,14.02515C375.17975,419.13,369.18878,439.11046,353.34906,447.245Z"/><path class="cls-1" d="M675.23584,404.43406c-5.96228-21.60705-23.00415-35.24231-45.25781-36.21148-14.5213-.6322-26.02735,4.2575-33.98426,14.44214l-1.54455,1.97741-.3255-1.735c-.17908-.9538-.25476-13.69812-.1687-28.32031l.15631-26.58637-8.53375.00049h-8.53382V375.1812c0,50.42657.046,51.51446,2.49732,58.97027,8.95874,27.25122,40.10827,40.58673,68.13177,29.16821,14.47681-5.89892,24.89-18.8327,28.0918-34.892C676.83075,423.08128,676.52252,409.09672,675.23584,404.43406Zm-23.58441,35.23243a33.26772,33.26772,0,0,1-12.39356,8.95434c-10.02288,3.74988-22.04394,2.53095-30.505-3.09393-24.091-16.01587-16.27954-55.52509,11.98492-60.61914,3.58863-.6471,12.42517-.22461,15.67151.749C658.53632,392.29136,666.59119,420.83232,651.65143,439.66649Z"/><path class="cls-2" d="M1060.75739,437.45616l-.1594-25.70735a18.02828,18.02828,0,0,0-.64018-4.65113l-.66185-2.41624c-4.90356-17.90613-17.61523-30.60889-35.2096-35.18445-3.72131-.96765-16.69763-1.77453-19.11621-1.18829-.40814.09894-2.46173.45068-4.56329.78161-2.33942.3686-3.44464,1.457-3.78149,1.24915-.69013-.42694-4.75922.83954-8.22809,2.56012-30.16858,14.96362-36.485,57.45447-12.05072,81.05969,11.72119,11.32343,28.19708,15.83624,44.70172,12.24365,6.88-1.49749,15.71948-6.98437,20.3595-12.637a11.74824,11.74824,0,0,1,2.27368-2.34991c.20385-.01728.371,3.19635.371,7.14172v7.17328h16.87964Zm-19.04639-7.71954a31.48951,31.48951,0,0,1-30.2265,20.95306c-9.5138,0-16.4917-2.665-22.57624-8.6228-5.82074-5.6991-8.74353-11.7425-9.78979-20.24121-2.17627-17.67359,9.40594-34.1178,25.97388-36.87879,17.59643-2.93219,32.79638,6.76764,37.5061,23.93366C1044.22113,414.79533,1043.82538,424.092,1041.711,429.73662Z"/><path class="cls-2" d="M989.22717,372.67988a42.16406,42.16406,0,0,1,19.67517-4.56568"/><line class="cls-3" x1="887.11767" y1="369.27997" x2="912.65135" y2="369.16602"/></svg>