<svg id="Layer_1" data-name="Layer 1" xmlns="http://www.w3.org/2000/svg" viewBox="0 0 3750 2652"><defs><style>.cls-1{fill:#fff;fill-rule:evenodd;}</style></defs><path class="cls-1" d="M1089.1681,1187.4074a4.8544,4.8544,0,0,1,2.8473,3.4168,125.2091,125.2091,0,0,1,0,23.9175,12.0639,12.0639,0,0,1-2.8473,3.4168q-85.9835,1.418-171.9786,1.7084-1.7,51.4056-1.1389,103.0733,76.9462-.803,153.7557,1.7084l1.7084,1.7084a58.7837,58.7837,0,0,1,0,26.1954,4.988,4.988,0,0,1-3.9863,1.1389q-76.0236-1.9818-152.6167-.57a69.2852,69.2852,0,0,0,20.5007,1.7084,83.0452,83.0452,0,0,1-19.3618,1.139v107.06q80.9781,1.0249,160.5893,0a128.1769,128.1769,0,0,1,19.3618,1.7084l1.7084,1.7084a52.3307,52.3307,0,0,1,0,26.1954,8.0122,8.0122,0,0,1-2.8473,2.2778,2.5132,2.5132,0,0,0-2.2779-2.2778q-44.8283-.41-89.4061,1.1389-60.3576-1.1447-120.7267-2.2779.832-150.8514.57-301.8166,27.6761,2.1183,55.2382,3.4167,73.0511-1.4178,146.3526-1.7084A21.8958,21.8958,0,0,1,1089.1681,1187.4074Z"/><path class="cls-1" d="M1089.1681,1187.4074a21.8958,21.8958,0,0,0-4.5557,3.9862q-73.29.2905-146.3526,1.7084-27.5565-1.2984-55.2382-3.4167.2631,150.9709-.57,301.8166,60.3578,1.1448,120.7267,2.2779,44.5891-1.5548,89.4061-1.1389a2.5132,2.5132,0,0,1,2.2779,2.2778q-106.4844.2905-212.98-.5694a8.0389,8.0389,0,0,1-3.4168-6.2642q.8542-149.2966,2.8473-298.4a10.53,10.53,0,0,1,2.8473-1.7084Q986.6644,1187.1227,1089.1681,1187.4074Z"/><path class="cls-1" d="M1067.5284,1353.6913q-66.1491,2.2211-132.116,1.1389a69.2852,69.2852,0,0,1-20.5007-1.7084Q991.5161,1351.704,1067.5284,1353.6913Z"/><path class="cls-1" d="M1601.687,1461.89a1.8424,1.8424,0,0,1-1.1389-1.7084q4.2368-4.1,0-7.9725l4.5557-4.5557a33.6524,33.6524,0,0,0-5.6947-2.8473,56.985,56.985,0,0,1-5.6946-10.25,5.3738,5.3738,0,0,1-4.5558,2.2779,5.6413,5.6413,0,0,1-.5694,3.4167,7.5345,7.5345,0,0,1,2.2778-7.9725c1.606,1.3326,2.927.9453,3.9863-1.1389a16.6453,16.6453,0,0,0,1.7084-5.6947c1.0137,1.3781,1.97,1.3781,2.8473,0l-2.2778-2.2778q4.9886-4.51-1.139-7.4031a5.6418,5.6418,0,0,1,3.4168-.5694,14.952,14.952,0,0,0-4.5557-7.4031q3.9976-4.2025-1.1389-7.9725,2.8017-3.3314,5.1252.57l2.2778-2.2779a30.0508,30.0508,0,0,1,4.5557,6.8336q1.5548-4.476,1.7084.57a4.8947,4.8947,0,0,1-2.2778,3.4167,56.3825,56.3825,0,0,0,1.1389,10.25c-.9.6265-2.0387,1.3781-3.4168,2.2779,1.5147,1.1389,3.041,2.2778,4.5557,3.4168a8.022,8.022,0,0,0-5.6946,6.2641c1.72,1.4123,3.041,1.0365,3.9862-1.1389a3.91,3.91,0,0,1,1.7084,2.8473,12.431,12.431,0,0,1-6.2641,5.1252,12.9526,12.9526,0,0,1-1.7084,3.9862q4.476-.4442,6.2641-5.1251a5.6406,5.6406,0,0,1,.57,3.4167,3.7309,3.7309,0,0,1,3.9863,2.2779c.1936-.57.3758-1.1389.5694-1.7084a116.4009,116.4009,0,0,1-1.1389-39.2931,20.874,20.874,0,0,0-2.2779-3.9863,5.6418,5.6418,0,0,1,3.4168-.5694,4.9874,4.9874,0,0,0-1.1389-3.9863,45.7923,45.7923,0,0,0-10.25-6.2641,5.1294,5.1294,0,0,1,1.7084-2.2779q8.0465,6.7482,5.6947-3.4168a51.5327,51.5327,0,0,1-9.6809-13.0977c-2.0616-.6947-2.4488-.3189-1.139,1.139a12.0639,12.0639,0,0,1-3.4168,2.8473,6.8574,6.8574,0,0,1,0-7.4031q-2.1012-3.3654-3.4168.57,2.4261,2.7848-1.1389,1.7084c-.7631-1.1389-1.5147-2.2779-2.2778-3.4168,1.5147-1.5147,1.5147-3.041,0-4.5557-1.9021-.3758-3.7926-.7631-5.6947-1.1389.7631-.3758,1.5147-.7632,2.2779-1.139a287.3113,287.3113,0,0,0-29.6122-13.0977l-2.2779,2.2779c-.6947-2.0728-2.4031-3.9635-5.1252-5.6947l-1.1389,1.139q-3.8952-9.2255-6.2641.5694a53.0663,53.0663,0,0,0,7.9725,1.7084,3.6089,3.6089,0,0,1-5.1252,0,5.6417,5.6417,0,0,0-.57,3.4168q-8.1149,2.6822-4.5557-5.6946-.2051-4.254-3.4168-2.2779a37.1378,37.1378,0,0,0-10.82-5.6947,5.1287,5.1287,0,0,0-1.7084,2.2779q2.17,1.811,3.9862,3.4168,2.016-2.1013,3.9863,0a4.0744,4.0744,0,0,1-1.1389,1.7084,4.372,4.372,0,0,0,4.5557-.5695,3.5028,3.5028,0,0,1,1.1389,3.4168c-2.8815-1.5831-5.3415-1.2073-7.403,1.139a9.5591,9.5591,0,0,1-.5695-4.5558,28.6961,28.6961,0,0,0-7.4031,0q-3.4509-3.6731,1.7084-5.1252a10.8465,10.8465,0,0,1-3.4168-3.9862,3.5028,3.5028,0,0,0-1.1389,3.4168,5.6416,5.6416,0,0,0-3.4168.5694q4.476.9909,2.2779,4.5558a17.2653,17.2653,0,0,1,3.9862,8.5419,21.4467,21.4467,0,0,1,2.2779-5.6946,8.846,8.846,0,0,1,1.7084,6.8336,28.39,28.39,0,0,0-7.9725.5694c.9566,1.4123.5694,2.7449-1.1389,3.9863a23.4159,23.4159,0,0,0-6.2642-3.4168q-3.468,1.2129-3.4168,3.4168a10.5931,10.5931,0,0,1-2.8473-2.2779,6.5144,6.5144,0,0,1-5.1252,2.2779q-5.9451-1.0591-11.9588-1.7084a130.5859,130.5859,0,0,0-26.1954-7.9725q-9.7206-4.8688-19.3618-10.25a5.3862,5.3862,0,0,0-5.6946.57,69.6942,69.6942,0,0,1-33.5985-39.8626q-14.3163-63.2962,41.571-95.1007,44.8112-20.9449,94.5312-13.6672a203.5009,203.5009,0,0,1,63.78,21.07q11.7879,8.1149,2.8473,19.3618c-.7631,3.041-1.5147,6.07-2.2779,9.1115a9.8862,9.8862,0,0,1-6.8336,3.4168,264.9025,264.9025,0,0,1-31.3206-13.0977q-46.0753-17.3745-93.3923-3.4168-46.5195,19.6636-30.7511,67.7664a71.8842,71.8842,0,0,0,39.8626,26.7648q40.8135,9.43,80.8641,21.64a115.1433,115.1433,0,0,1,46.1267,27.9038Q1635.348,1414.3623,1601.687,1461.89Z"/><path class="cls-1" d="M1601.687,1461.89a121.0219,121.0219,0,0,1-47.8351,30.1817q-79.6968,20.347-150.3389-20.5008-6.27-4.8346-12.5282-9.6809a10.2405,10.2405,0,0,1-3.4168-6.2641,51.7751,51.7751,0,0,1,12.5282-21.64,10.4854,10.4854,0,0,1,6.8336,0q57.3,43.65,128.6992,29.6122a157.9538,157.9538,0,0,0,28.4733-12.5282q24.7889-21.987,14.2366-54.0992a73.6708,73.6708,0,0,0-14.2366-16.5145q-15.4269-6.6287-30.7512-13.6672-38.8488-9.8233-77.4473-20.5008-12.7274-5.501-25.0564-11.9587a5.3862,5.3862,0,0,1,5.6946-.57q9.6354,5.3816,19.3618,10.25a130.5859,130.5859,0,0,1,26.1954,7.9725q6.0136.6492,11.9588,1.7084a6.5144,6.5144,0,0,0,5.1252-2.2779,10.5931,10.5931,0,0,0,2.8473,2.2779q-.0513-2.204,3.4168-3.4168a23.4159,23.4159,0,0,1,6.2642,3.4168c1.7083-1.2414,2.0955-2.574,1.1389-3.9863a28.39,28.39,0,0,1,7.9725-.5694,8.846,8.846,0,0,0-1.7084-6.8336,21.4467,21.4467,0,0,0-2.2779,5.6946,17.2653,17.2653,0,0,0-3.9862-8.5419q2.2038-3.5706-2.2779-4.5558a5.6416,5.6416,0,0,1,3.4168-.5694,3.5028,3.5028,0,0,1,1.1389-3.4168,10.8465,10.8465,0,0,0,3.4168,3.9862q-5.1594,1.4522-1.7084,5.1252a28.6961,28.6961,0,0,1,7.4031,0,9.5591,9.5591,0,0,0,.5695,4.5558c2.0615-2.3463,4.5215-2.7221,7.403-1.139a3.5028,3.5028,0,0,0-1.1389-3.4168,4.372,4.372,0,0,1-4.5557.5695,4.0744,4.0744,0,0,0,1.1389-1.7084q-1.9647-2.1013-3.9863,0-1.811-1.6057-3.9862-3.4168a5.1287,5.1287,0,0,1,1.7084-2.2779,37.1378,37.1378,0,0,1,10.82,5.6947q3.2118-1.9818,3.4168,2.2779-3.5533,8.371,4.5557,5.6946a5.6417,5.6417,0,0,1,.57-3.4168,3.6089,3.6089,0,0,0,5.1252,0,53.0663,53.0663,0,0,1-7.9725-1.7084q2.3747-9.789,6.2641-.5694l1.1389-1.139c2.7221,1.7312,4.43,3.6219,5.1252,5.6947l2.2779-2.2779a287.3113,287.3113,0,0,1,29.6122,13.0977c-.7632.3758-1.5148.7632-2.2779,1.139,1.9021.3758,3.7926.7631,5.6947,1.1389,1.5147,1.5147,1.5147,3.041,0,4.5557.7631,1.1389,1.5147,2.2779,2.2778,3.4168q3.57,1.0762,1.1389-1.7084,1.3155-3.9294,3.4168-.57a6.8574,6.8574,0,0,0,0,7.4031,12.0639,12.0639,0,0,0,3.4168-2.8473c-1.31-1.4579-.9226-1.8337,1.139-1.139a51.5327,51.5327,0,0,0,9.6809,13.0977q2.3575,10.1649-5.6947,3.4168a5.1294,5.1294,0,0,0-1.7084,2.2779,45.7923,45.7923,0,0,1,10.25,6.2641,4.9874,4.9874,0,0,1,1.1389,3.9863,5.6418,5.6418,0,0,0-3.4168.5694,20.874,20.874,0,0,1,2.2779,3.9863,116.4009,116.4009,0,0,0,1.1389,39.2931c-.1936.5695-.3758,1.1389-.5694,1.7084a3.7309,3.7309,0,0,0-3.9863-2.2779,5.6406,5.6406,0,0,0-.57-3.4167q-1.7938,4.6809-6.2641,5.1251a12.9526,12.9526,0,0,0,1.7084-3.9862,12.431,12.431,0,0,0,6.2641-5.1252,3.91,3.91,0,0,0-1.7084-2.8473c-.9452,2.1754-2.2664,2.5512-3.9862,1.1389a8.022,8.022,0,0,1,5.6946-6.2641c-1.5147-1.139-3.041-2.2779-4.5557-3.4168,1.3781-.9,2.517-1.6514,3.4168-2.2779a56.3825,56.3825,0,0,1-1.1389-10.25,4.8947,4.8947,0,0,0,2.2778-3.4167q-.1536-5.04-1.7084-.57a30.0508,30.0508,0,0,0-4.5557-6.8336l-2.2778,2.2779q-2.3235-3.8952-5.1252-.57,5.1423,3.7755,1.1389,7.9725a14.952,14.952,0,0,1,4.5557,7.4031,5.6418,5.6418,0,0,0-3.4168.5694q6.1161,2.9043,1.139,7.4031l2.2778,2.2778c-.877,1.3781-1.8336,1.3781-2.8473,0a16.6453,16.6453,0,0,1-1.7084,5.6947c-1.0593,2.0842-2.38,2.4715-3.9863,1.1389a7.5345,7.5345,0,0,0-2.2778,7.9725,5.6413,5.6413,0,0,0,.5694-3.4167,5.3738,5.3738,0,0,0,4.5558-2.2779,56.985,56.985,0,0,0,5.6946,10.25,33.6524,33.6524,0,0,1,5.6947,2.8473l-4.5557,4.5557q4.2368,3.861,0,7.9725A1.8424,1.8424,0,0,0,1601.687,1461.89Z"/><path class="cls-1" d="M1371.623,1189.6853a3.7726,3.7726,0,0,1,1.7083,2.2778,92.067,92.067,0,0,1,0,20.5008,8.0972,8.0972,0,0,1-3.9862,6.2641q-16.8276.4442-33.5985,1.7084-22.0383-.5466-44.4183-1.1389-11.1045.5637-22.2091,1.1389a5.1286,5.1286,0,0,1-1.7084,2.2778q-.5637,134.4-1.139,268.7877a5.21,5.21,0,0,1-2.8473,2.8474,191.8037,191.8037,0,0,1-29.6122,0,9.7578,9.7578,0,0,1-3.4168-7.4031c1.0251,1.2528,1.97,1.2528,2.8474,0q1.1447-69.4806,0-138.95a127.3289,127.3289,0,0,0-1.7084-16.5145q2.631-3.4851-1.139-5.1251v-1.139q3.7755-1.64,1.139-5.1252,2.4431-51.4227,3.4167-103.0732-7.3461,1.0763-14.8061,1.7084a2.5383,2.5383,0,0,1,1.139,1.7084q-34.2021-.41-68.3359,0-13.1374-.6492-26.1954-2.2779a10.21,10.21,0,0,1-3.4168-3.4168,13.5181,13.5181,0,0,0,2.8474-4.5557q.5636-9.1056,1.1389-18.2229a6.75,6.75,0,0,1,4.5557-2.2778c3.6219.5124,7.2208,1.0819,10.82,1.7083q21.6456.2905,43.2794.5695,60.426.5637,120.1572-1.1389c.3758.7631.7632,1.5147,1.139,2.2778a21.121,21.121,0,0,1,13.6671,0c1.139-.7631,2.2779-1.5147,3.4168-2.2778a148.2569,148.2569,0,0,0,18.2229,1.1389A154.0966,154.0966,0,0,0,1371.623,1189.6853Z"/><path class="cls-1" d="M1371.623,1189.6853a154.0966,154.0966,0,0,1-29.0428,2.2778,148.2569,148.2569,0,0,1-18.2229-1.1389c-1.1389.7631-2.2778,1.5147-3.4168,2.2778a21.121,21.121,0,0,0-13.6671,0c-.3758-.7631-.7632-1.5147-1.139-2.2778q-59.7426,1.7083-120.1572,1.1389-21.6454-.2906-43.2794-.5695c-3.599-.6264-7.1979-1.1959-10.82-1.7083a6.75,6.75,0,0,0-4.5557,2.2778q-.5637,9.1058-1.1389,18.2229a13.5181,13.5181,0,0,1-2.8474,4.5557,204.7449,204.7449,0,0,1,.57-21.64,8.019,8.019,0,0,1,2.8473-5.1251q99.5825-.6321,198.7435-1.7084,21.799,1.4007,43.8488,1.7084A3.7729,3.7729,0,0,1,1371.623,1189.6853Z"/><path class="cls-1" d="M1230.3955,1325.218V1220.4364h-9.1114a2.5383,2.5383,0,0,0-1.139-1.7084q7.4487-.6321,14.8061-1.7084-.9736,51.6619-3.4167,103.0732Q1234.1655,1323.5781,1230.3955,1325.218Z"/><path class="cls-1" d="M1230.3955,1326.357q3.7755,1.64,1.139,5.1251a127.3289,127.3289,0,0,1,1.7084,16.5145q1.1447,69.4806,0,138.95c-.877,1.2528-1.8223,1.2528-2.8474,0Z"/><path class="cls-1" d="M338.6127,1492.6409a69.8816,69.8816,0,0,0-9.1115-6.2642,49.2052,49.2052,0,0,1-10.25-2.2778q-11.5778-5.5864-22.7786-11.9588a66.9214,66.9214,0,0,1-9.1114-7.403q2.2773-3.1434-.57-1.7084a54.008,54.008,0,0,1-2.2779-7.9726q-.5415,3.0753-2.2778,1.139c-1.139.7631-2.2779,1.5147-3.4168,2.2778a16.8462,16.8462,0,0,1,5.6946-15.945,7.5038,7.5038,0,0,0-.5694-6.8336q3.3073-5.6207,9.1114-1.7084,48.3442,37.1406,109.3374,31.89a140.3867,140.3867,0,0,0,44.4183-11.9588,54.107,54.107,0,0,0,11.3893-6.2641,104.3564,104.3564,0,0,1,9.1114-11.3893,68.0113,68.0113,0,0,0,.57-39.2931q-3.9857-5.6889-7.9725-11.3893a110.79,110.79,0,0,0-35.8763-19.9313,145.9628,145.9628,0,0,1-19.9313-5.1252,3.8557,3.8557,0,0,0-2.8473,1.1389,1.8425,1.8425,0,0,1-2.2779-1.1389q-5.3576-2.9554-11.3893-5.6947-8.5421-1.4178-17.084-2.8473a8.3742,8.3742,0,0,1-3.4168-2.2779,81.0123,81.0123,0,0,1-34.1679-11.3893c.76-.3758,1.5182-.7631,2.2779-1.1389a42.5862,42.5862,0,0,1-17.084-5.6947,9.2342,9.2342,0,0,0-7.9725-6.2641,7.7721,7.7721,0,0,1,3.4168-1.7084q-4.2556-1.0763,0-2.8473a2.9467,2.9467,0,0,0,.5694-3.4168q-6.2817,4.4418-9.6809-2.8473c.3793-.3758.76-.7632,1.139-1.1389a8.244,8.244,0,0,1-2.2779-2.8474,10.2019,10.2019,0,0,0,6.8336-1.7084q-3.6867-2.238-1.1389-5.6946-4.38-.7687-5.1252,3.9862a9.84,9.84,0,0,1-1.7084-6.2641,44.8479,44.8479,0,0,1-7.9725-1.7084,7.4347,7.4347,0,0,0,0,5.1252l-1.7084,1.7084a33.22,33.22,0,0,1-1.7084-11.3893,4.9865,4.9865,0,0,1-3.9863-1.1389,106.1956,106.1956,0,0,0-3.9863-11.3893,2.08,2.08,0,0,0-1.1389,2.2778,3.2643,3.2643,0,0,1-1.1389-3.4168h3.4168q.5432-17.75,2.8473-35.3068a17.3046,17.3046,0,0,0,5.1252-12.5283,2.7039,2.7039,0,0,0-1.1389-2.2778q28.9983-40.13,78.5862-44.9878a221.5268,221.5268,0,0,1,99.087,13.6672,79.7077,79.7077,0,0,1,19.9313,13.0977,28.1176,28.1176,0,0,1-1.139,13.6671q-3.3485,5.2618-6.2641,10.82a18.4178,18.4178,0,0,1-9.1114,0q-47.91-26.4972-102.5038-19.3618A96.4549,96.4549,0,0,0,330.64,1234.673q-23.487,26.8731-7.403,58.655a70.2124,70.2124,0,0,0,33.5984,22.2091q35.2494,9.1058,70.6138,18.2229a254.2057,254.2057,0,0,1,43.2793,18.2229q44.9359,31.742,30.1817,85.9893-18.3944,41.5142-62.0717,54.0992A213.7475,213.7475,0,0,1,338.6127,1492.6409Z"/><path class="cls-1" d="M290.7776,1230.6868a2.7039,2.7039,0,0,1,1.1389,2.2778,17.3046,17.3046,0,0,1-5.1252,12.5283q-2.3046,17.5623-2.8473,35.3068h-3.4168A84.0942,84.0942,0,0,1,290.7776,1230.6868Z"/><path class="cls-1" d="M398.976,1360.5249q-28.5781-6.3381-56.9466-14.2367a179.2772,179.2772,0,0,1-37.5847-20.5007,70.2953,70.2953,0,0,1-22.7786-41.571,2.08,2.08,0,0,1,1.1389-2.2778,106.1956,106.1956,0,0,1,3.9863,11.3893,4.9865,4.9865,0,0,0,3.9863,1.1389,33.22,33.22,0,0,0,1.7084,11.3893l1.7084-1.7084a7.4347,7.4347,0,0,1,0-5.1252,44.8479,44.8479,0,0,0,7.9725,1.7084,9.84,9.84,0,0,0,1.7084,6.2641q.7448-4.7493,5.1252-3.9862-2.5473,3.4509,1.1389,5.6946a10.2019,10.2019,0,0,1-6.8336,1.7084,8.244,8.244,0,0,0,2.2779,2.8474c-.3793.3757-.76.7631-1.139,1.1389q3.3981,7.2777,9.6809,2.8473a2.9467,2.9467,0,0,1-.5694,3.4168q-4.2556,1.7767,0,2.8473a7.7721,7.7721,0,0,0-3.4168,1.7084,9.2342,9.2342,0,0,1,7.9725,6.2641,42.5862,42.5862,0,0,0,17.084,5.6947c-.76.3758-1.5182.7631-2.2779,1.1389a81.0123,81.0123,0,0,0,34.1679,11.3893,8.3742,8.3742,0,0,0,3.4168,2.2779q8.5421,1.418,17.084,2.8473Q393.6191,1357.5636,398.976,1360.5249Z"/><path class="cls-1" d="M401.2539,1361.6638a3.8557,3.8557,0,0,1,2.8473-1.1389,145.9628,145.9628,0,0,0,19.9313,5.1252,110.79,110.79,0,0,1,35.8763,19.9313q3.9857,5.6889,7.9725,11.3893a68.0113,68.0113,0,0,1-.57,39.2931,104.3564,104.3564,0,0,0-9.1114,11.3893,54.107,54.107,0,0,1-11.3893,6.2641q28.7967-21.15,18.2229-55.8076a39.8791,39.8791,0,0,0-14.8061-17.6534A168.152,168.152,0,0,0,401.2539,1361.6638Z"/><path class="cls-1" d="M283.944,1435.6943a7.5038,7.5038,0,0,1,.5694,6.8336,16.8462,16.8462,0,0,0-5.6946,15.945c1.1389-.7631,2.2778-1.5147,3.4168-2.2778q1.7357,1.93,2.2778-1.139a54.008,54.008,0,0,0,2.2779,7.9726q2.8461-1.4351.57,1.7084a66.9214,66.9214,0,0,0,9.1114,7.403q11.2,6.3723,22.7786,11.9588a49.2052,49.2052,0,0,0,10.25,2.2778,69.8816,69.8816,0,0,1,9.1115,6.2642,171.257,171.257,0,0,1-62.6412-31.89,6.1647,6.1647,0,0,1-1.7084-6.8336Q278.8723,1444.521,283.944,1435.6943Z"/><path class="cls-1" d="M826.0751,1486.9462a8.1815,8.1815,0,0,0,0,5.6947q-15.7617-.3588-31.3206,0a6.66,6.66,0,0,1-5.1252-2.2779,6.2463,6.2463,0,0,1-.5695-5.6947q1.9321,1.8792,2.8473-1.1389a5.5315,5.5315,0,0,0-4.5557-1.1389q.1128-7.8587-7.9725-7.9725c-1.812-2.5854-3.52-5.25-5.1252-7.9725-1.5182-.7632-3.0375-1.5148-4.5557-2.2779a35.8516,35.8516,0,0,0-3.9863-7.9725,35.5256,35.5256,0,0,1,0-10.82,4.3719,4.3719,0,0,1,4.5558.57,9.7858,9.7858,0,0,0,4.5557,6.8336,23.48,23.48,0,0,1,0,9.1114q2.3166-5.0568,6.2641-6.8336,2.5062,5.6037-.57,10.25c.3793.7632.76,1.5148,1.139,2.2779q2.04-5.33,5.1252-1.1389c.3792,1.902.76,3.7925,1.1389,5.6946q2.2482-4.3223,3.9862,0a4.1308,4.1308,0,0,0,1.7084-1.1389q-.0308,8.32,7.4031,6.2641a5.28,5.28,0,0,0,2.8473,2.8473,15.1185,15.1185,0,0,1,3.9863-5.6946,11.2734,11.2734,0,0,1-2.8474-5.6947,4.9327,4.9327,0,0,1-2.8473,3.4168,13.31,13.31,0,0,0-5.1252-1.1389,1.4234,1.4234,0,0,1,0-2.2779q3.9158,1.8792,5.1252-2.8473-3.702-5.9795-6.2641.57-2.4551-2.9385,1.7084-5.1252a86.054,86.054,0,0,0-10.25-9.1115c.3793-.3758.76-.7631,1.1389-1.1389a14.86,14.86,0,0,1-6.8335-6.8336c.3792-.3758.76-.7631,1.1389-1.1389a81.32,81.32,0,0,1-9.1115-4.5558q3.7842-2.3747,0-5.6946-2.5557-.8713-3.9862,1.7084a23.0378,23.0378,0,0,1-3.9863-2.8473q5.2484-2.7848,1.7084-7.4031a33.7232,33.7232,0,0,1-2.8473,5.1252q-5.0739-1.0592-1.1389-4.5557a25.6563,25.6563,0,0,1-.5695-5.1252,6.5063,6.5063,0,0,0-6.2641-3.4168,77.1181,77.1181,0,0,0-6.2641-10.25q-2.2364-4.083-3.4168,0a8.3556,8.3556,0,0,0-3.9863-5.1252q2.2773-1.7083,0-3.4168a7.9873,7.9873,0,0,1-3.9862-2.8473q-1.4232,4.2709-3.9863.57,5.7573-3.0924.5695-6.2641a8.3351,8.3351,0,0,0-2.2779,3.4167q-4.8279-2.4259-.57-5.1251-1.9168-7.1581-7.9725-7.9726a1.8966,1.8966,0,0,0,.57-2.8473q-6.9755-7.722-13.0977-15.945a40.7144,40.7144,0,0,0-10.25-5.6947,26.5286,26.5286,0,0,1,4.5557-.5694q-1.9305-8.6787-6.8336-1.7084-6.7822-3.2289,1.139-3.4168v-3.4168a5.6362,5.6362,0,0,1-3.4168-.57c1.3143-1.0365,1.1241-1.9931-.5695-2.8473a14.2128,14.2128,0,0,1-2.8473,4.5557,12.1932,12.1932,0,0,0-3.4168-2.8473q4.8263-6.082-1.7084-10.82a3.9144,3.9144,0,0,0,1.7084,5.1252,10.6947,10.6947,0,0,0-1.7084,2.8474q-1.7083-2.2722-3.4168,0l-1.7084-3.4168q6.2116-4.3224,2.2779-10.25-1.58,1.9476-2.8474,0,1.0559,6.8849-4.5557,2.2778-.7653-3.2629,2.8473-3.9862a6.3184,6.3184,0,0,1-2.2778-6.2641H682.57a9.6034,9.6034,0,0,0,.5694,4.5557,16.2865,16.2865,0,0,0,1.7084-6.8336q-1.8689-3.9975-4.5557,0a2.2907,2.2907,0,0,1-.57-3.4168,40.2971,40.2971,0,0,1,5.1252-1.1389,5.0934,5.0934,0,0,1,1.7084,2.2778,13.1156,13.1156,0,0,0,3.9863-5.6946,11.19,11.19,0,0,0-6.8336-1.1389,12.74,12.74,0,0,0-1.1389-5.1252c-1.3052-.8656-2.4442-1.6288-3.4168-2.2779.6845-3.0068,2.582-4.328,5.6946-3.9862a59.922,59.922,0,0,1,1.7084-7.9726c.3793.7632.76,1.5148,1.139,2.2779a53.543,53.543,0,0,0,6.2641-3.9863,5,5,0,0,1-1.1389-3.9862,7.7549,7.7549,0,0,1,4.5557,1.1389,9.0071,9.0071,0,0,1,5.6946-4.5557c-1.4054-2.164-1.0261-4.0547,1.139-5.6947a5.3746,5.3746,0,0,0,4.5557,2.2779q-1.2284-7.8928,6.8336-9.1114a5.527,5.527,0,0,0,1.1389-4.5558h3.4168a6.7112,6.7112,0,0,0,1.7084,5.6947q3.27-2.016-.5695-3.4168,1.9372-11.2241,2.8474,0,4.2009-2.6481,2.2778-6.8336c1.1389.7631,2.2779,1.5147,3.4168,2.2779a7.9884,7.9884,0,0,1,3.9863-2.8474q-7.5768-1.64-1.7084-6.2641a13.8018,13.8018,0,0,0,5.1252,3.9863q-1.7682,2.58.5694,5.1252,1.1173-2.05,1.7084,0a5.11,5.11,0,0,1-2.2778,1.7084,9.56,9.56,0,0,0,4.5557.5694q.2238-7.09,5.1252-2.2778c1.3291-1.3326,2.6571-2.6537,3.9862-3.9863q-5.3934-2.8531-.5694-5.1252c1.0854,2.38,2.6036,2.7677,4.5557,1.1389a1.8966,1.8966,0,0,0-.5695-2.8473,9.56,9.56,0,0,0-4.5557-.5694,75.9148,75.9148,0,0,0-5.1252-11.3894,36.2176,36.2176,0,0,0-5.1252,5.6947,7.7545,7.7545,0,0,1-4.5557,1.1389,3.5151,3.5151,0,0,1-1.1389,3.4168q-3.3331-3.4338-.5695-6.8336,25.7455-23.832,49.5435-49.5435a30.41,30.41,0,0,1,10.82-1.7083q10.2213,3.3141,17.6535-2.2779a8.9689,8.9689,0,0,1,6.8336,0,14.7179,14.7179,0,0,1-.57,5.6946c-1.8986,2.6537-3.7961,5.3189-5.6947,7.9726q-60.8241,62.2538-120.1572,126.4213Q758.377,1407.8418,826.0751,1486.9462Z"/><path class="cls-1" d="M601.7057,1187.4074c3.3986,1.4579,5.107,4.1229,5.1252,7.9725q.157,86.2227.5694,171.9786,11.9931-11.4291,23.9176-22.7786a2.76,2.76,0,0,0,.5695,2.2778,9.8634,9.8634,0,0,1,8.5419-5.6946v-3.4168h5.6947a5.3647,5.3647,0,0,0,2.2779,4.5557q-1.8075,5.6378,4.5557,5.6946a5.3651,5.3651,0,0,1-2.2779,4.5558q1.6434,4.0659-3.4168,3.4168-.1485,5.2959,1.7084,1.1389a26.1506,26.1506,0,0,0,2.2779,5.6946,13.6787,13.6787,0,0,0,3.4168-7.9725q3.1178-1.025,6.2641-2.2778a2.9469,2.9469,0,0,0,.5695-3.4168,3.9187,3.9187,0,0,1-5.1252,1.7084,23.3281,23.3281,0,0,1,2.8473-5.1252c1.8986.3758,3.7961.7631,5.6946,1.1389a12.8994,12.8994,0,0,0,1.7084,3.9863,5.2353,5.2353,0,0,0-2.2778,5.1252q-28.9863,27.5563-56.3771,56.9465a288.8376,288.8376,0,0,0-1.7084,35.3069q.0923,18.5359,1.1389,37.0152.8542,6.27-4.5557,9.1115a177.3553,177.3553,0,0,1-28.4733,0,4.8453,4.8453,0,0,1-3.4167-2.8474,5.6568,5.6568,0,0,0,2.8473-4.5557q.2853-8.8325.5694-17.6534-2.2277-136.3983,0-272.774.5689-3.4167,1.139-6.8335a4.1317,4.1317,0,0,0,1.7084-1.139q7.2179,1.6229,14.2366,3.4168A10.1926,10.1926,0,0,0,601.7057,1187.4074Z"/><path class="cls-1" d="M601.7057,1187.4074a10.1926,10.1926,0,0,1-10.25,4.5557q-7.018-1.7939-14.2366-3.4168a4.1317,4.1317,0,0,1-1.7084,1.139q-.569,3.4167-1.139,6.8335-2.2277,136.3812,0,272.774-.2852,8.8325-.5694,17.6534a5.6568,5.6568,0,0,1-2.8473,4.5557q-1.9887-148.511-.57-297.2609a8.0989,8.0989,0,0,1,3.9862-6.2641Q588.0265,1187.1227,601.7057,1187.4074Z"/><path class="cls-1" d="M811.269,1187.4074q-7.4316,5.6035-17.6535,2.2779a30.41,30.41,0,0,0-10.82,1.7083q-23.798,25.7115-49.5435,49.5435-2.7642,3.4.5695,6.8336a3.5151,3.5151,0,0,0,1.1389-3.4168,7.7545,7.7545,0,0,0,4.5557-1.1389,36.2176,36.2176,0,0,1,5.1252-5.6947,75.9148,75.9148,0,0,1,5.1252,11.3894,9.56,9.56,0,0,1,4.5557.5694,1.8966,1.8966,0,0,1,.5695,2.8473c-1.9521,1.6288-3.47,1.2414-4.5557-1.1389q-4.8244,2.2721.5694,5.1252c-1.3291,1.3326-2.6571,2.6537-3.9862,3.9863q-4.9014-4.8177-5.1252,2.2778a9.56,9.56,0,0,1-4.5557-.5694,5.11,5.11,0,0,0,2.2778-1.7084q-.5911-2.05-1.7084,0-2.337-2.5455-.5694-5.1252a13.8018,13.8018,0,0,1-5.1252-3.9863q-5.8684,4.63,1.7084,6.2641a7.9884,7.9884,0,0,0-3.9863,2.8474c-1.1389-.7632-2.2779-1.5148-3.4168-2.2779q1.9236,4.1855-2.2778,6.8336-.9089-11.2241-2.8474,0,3.84,1.4008.5695,3.4168a6.7112,6.7112,0,0,1-1.7084-5.6947h-3.4168a5.527,5.527,0,0,1-1.1389,4.5558q-8.0619,1.2128-6.8336,9.1114a5.3746,5.3746,0,0,1-4.5557-2.2779c-2.1651,1.64-2.5444,3.5307-1.139,5.6947a9.0071,9.0071,0,0,0-5.6946,4.5557,7.7549,7.7549,0,0,0-4.5557-1.1389,5,5,0,0,0,1.1389,3.9862,53.543,53.543,0,0,1-6.2641,3.9863c-.3793-.7631-.76-1.5147-1.139-2.2779a59.922,59.922,0,0,0-1.7084,7.9726c-3.1126-.3418-5.01.9794-5.6946,3.9862.9726.6491,2.1116,1.4123,3.4168,2.2779a12.74,12.74,0,0,1,1.1389,5.1252,11.19,11.19,0,0,1,6.8336,1.1389,13.1156,13.1156,0,0,1-3.9863,5.6946,5.0934,5.0934,0,0,0-1.7084-2.2778,40.2971,40.2971,0,0,0-5.1252,1.1389,2.2907,2.2907,0,0,0,.57,3.4168q2.6874-3.9975,4.5557,0a16.2865,16.2865,0,0,1-1.7084,6.8336,9.6034,9.6034,0,0,1-.5694-4.5557H679.153a6.3184,6.3184,0,0,0,2.2778,6.2641q-3.6132.7176-2.8473,3.9862,5.6121,4.5955,4.5557-2.2778,1.266,1.9476,2.8474,0,3.9344,5.928-2.2779,10.25l1.7084,3.4168q1.7083-2.2722,3.4168,0a10.6947,10.6947,0,0,1,1.7084-2.8474,3.9144,3.9144,0,0,1-1.7084-5.1252q6.5346,4.7323,1.7084,10.82a12.1932,12.1932,0,0,1,3.4168,2.8473,14.2128,14.2128,0,0,0,2.8473-4.5557c1.6936.8542,1.8838,1.8108.5695,2.8473a5.6362,5.6362,0,0,0,3.4168.57v3.4168q-7.9219.1878-1.139,3.4168,4.9032-6.97,6.8336,1.7084a26.5286,26.5286,0,0,0-4.5557.5694,40.7144,40.7144,0,0,1,10.25,5.6947q6.1228,8.2175,13.0977,15.945a1.8966,1.8966,0,0,1-.57,2.8473q6.0563.82,7.9725,7.9726-4.259,2.6991.57,5.1251a8.3351,8.3351,0,0,1,2.2779-3.4167q5.1884,3.16-.5695,6.2641,2.5626,3.7072,3.9863-.57a7.9873,7.9873,0,0,0,3.9862,2.8473q2.2773,1.7085,0,3.4168a8.3556,8.3556,0,0,1,3.9863,5.1252q1.18-4.083,3.4168,0a77.1181,77.1181,0,0,1,6.2641,10.25,6.5063,6.5063,0,0,1,6.2641,3.4168,25.6563,25.6563,0,0,0,.5695,5.1252q-3.9361,3.5022,1.1389,4.5557a33.7232,33.7232,0,0,0,2.8473-5.1252q3.54,4.63-1.7084,7.4031a23.0378,23.0378,0,0,0,3.9863,2.8473q1.43-2.58,3.9862-1.7084,3.7842,3.3142,0,5.6946a81.32,81.32,0,0,0,9.1115,4.5558c-.3793.3758-.76.7631-1.1389,1.1389a14.86,14.86,0,0,0,6.8335,6.8336c-.3792.3758-.76.7631-1.1389,1.1389a86.054,86.054,0,0,1,10.25,9.1115q-4.1634,2.1867-1.7084,5.1252,2.5626-6.5432,6.2641-.57-1.21,4.7322-5.1252,2.8473a1.4234,1.4234,0,0,0,0,2.2779,13.31,13.31,0,0,1,5.1252,1.1389,4.9327,4.9327,0,0,0,2.8473-3.4168,11.2734,11.2734,0,0,0,2.8474,5.6947,15.1185,15.1185,0,0,0-3.9863,5.6946,5.28,5.28,0,0,1-2.8473-2.8473q-7.4349,2.05-7.4031-6.2641a4.1308,4.1308,0,0,1-1.7084,1.1389q-1.7375-4.3223-3.9862,0c-.3793-1.9021-.76-3.7926-1.1389-5.6946q-3.0855-4.1856-5.1252,1.1389c-.3793-.7631-.76-1.5147-1.139-2.2779q3.077-4.6467.57-10.25-3.948,1.7769-6.2641,6.8336a23.48,23.48,0,0,0,0-9.1114,9.7858,9.7858,0,0,1-4.5557-6.8336,4.3719,4.3719,0,0,0-4.5558-.57,35.5256,35.5256,0,0,0,0,10.82,35.8516,35.8516,0,0,1,3.9863,7.9725c1.5182.7631,3.0375,1.5147,4.5557,2.2779,1.6048,2.722,3.3132,5.3871,5.1252,7.9725q8.0857.1194,7.9725,7.9725a5.5315,5.5315,0,0,1,4.5557,1.1389q-.9139,3.0239-2.8473,1.1389a6.2463,6.2463,0,0,0,.5695,5.6947,125.8947,125.8947,0,0,1-18.2229-21.64,16.1821,16.1821,0,0,1-7.4031-7.9725,4.9859,4.9859,0,0,0-3.9862-1.1389,9.6025,9.6025,0,0,0-.57-4.5558,113.8214,113.8214,0,0,1-18.2229-20.5007q-2.2072-2.2039-3.9862,0-33.6128-39.054-68.3359-78.0168a9.56,9.56,0,0,0-4.5557-.5694,5.2353,5.2353,0,0,1,2.2778-5.1252,12.8994,12.8994,0,0,1-1.7084-3.9863c-1.8985-.3758-3.796-.7631-5.6946-1.1389a23.3281,23.3281,0,0,0-2.8473,5.1252,3.9187,3.9187,0,0,0,5.1252-1.7084,2.9469,2.9469,0,0,1-.5695,3.4168q-3.1452,1.2471-6.2641,2.2778a13.6787,13.6787,0,0,1-3.4168,7.9725,26.1506,26.1506,0,0,1-2.2779-5.6946q-1.857,4.1516-1.7084-1.1389,5.06.6492,3.4168-3.4168a5.3651,5.3651,0,0,0,2.2779-4.5558q-6.3637-.0684-4.5557-5.6946a5.3647,5.3647,0,0,1-2.2779-4.5557h-5.6947v3.4168a9.8634,9.8634,0,0,0-8.5419,5.6946,2.76,2.76,0,0,1-.5695-2.2778q20.5912-22.0042,40.432-44.4184,53.7564-52.96,106.49-107.6289a20.7877,20.7877,0,0,1,6.8336-4.5557Q798.1581,1187.1227,811.269,1187.4074Z"/><path class="cls-1" d="M789.6293,1490.363a6.66,6.66,0,0,0,5.1252,2.2779q15.56-.3588,31.3206,0a8.1815,8.1815,0,0,1,0-5.6947q7.4691,5.9624-1.7084,9.1115-18.0475-.8714-35.8764-2.8474-25.9828-29.1111-51.2518-58.6549,1.78-2.2039,3.9862,0a113.8214,113.8214,0,0,0,18.2229,20.5007,9.6025,9.6025,0,0,1,.57,4.5558,4.9859,4.9859,0,0,1,3.9862,1.1389,16.1821,16.1821,0,0,0,7.4031,7.9725A125.8947,125.8947,0,0,0,789.6293,1490.363Z"/><path class="cls-1" d="M1946.783,1193.102a6.9978,6.9978,0,0,1-3.9862,1.139,107.6081,107.6081,0,0,1-29.0428-6.2641,191.5752,191.5752,0,0,0-86.5587,10.82,2.7067,2.7067,0,0,1-2.2779-1.1389,168.2541,168.2541,0,0,1,89.9756-11.9588Q1930.9691,1188.86,1946.783,1193.102Z"/><path class="cls-1" d="M2261.128,1187.4074a19.3169,19.3169,0,0,1,4.5557,15.945c-.1935,3.041-.3759,6.0705-.57,9.1115a6.4758,6.4758,0,0,1-3.9862,5.6946,45.4321,45.4321,0,0,1-19.3619-2.2778,750.7936,750.7936,0,0,1-82.5724,0,6.899,6.899,0,0,0-6.2642,6.2641q2.2039,46.28,2.8474,92.8228a201.0081,201.0081,0,0,1,1.7084-21.64q.8028,99.702-1.7084,199.3129l-1.7084,1.7084a222.4018,222.4018,0,0,1-31.89,0l-1.7084-1.7084q-2.5455-136.5692-1.7084-273.3434-51.4569,2.1525-102.5038-.5695l-2.8473-2.8473a85.6321,85.6321,0,0,1,1.1389-25.0565,3.7733,3.7733,0,0,1,1.7084-2.2779,14.9453,14.9453,0,0,0,5.6947,1.7084q-3.28,2.1184-1.139,5.1252,3.4339-2.46,6.8336-4.5557,61.0752,1.9134,121.2962,0a109.5809,109.5809,0,0,0,13.0977,1.7084,12.955,12.955,0,0,1,1.7084,3.9862,12.9526,12.9526,0,0,1,1.7084-3.9862,562.2281,562.2281,0,0,1,61.5022.5694q15.29-1.3839,30.7512-1.7084c-.376-.3757-.763-.7631-1.139-1.1389A5.6461,5.6461,0,0,0,2261.128,1187.4074Z"/><path class="cls-1" d="M2941.07,1320.6623a3.7729,3.7729,0,0,0-1.7084,2.2779q-.2052,23.4221-2.2779,46.6961a16.604,16.604,0,0,1-5.1252,10.25,17.8187,17.8187,0,0,1-.5694,12.5282,97.69,97.69,0,0,1-10.82,23.3481,2.1716,2.1716,0,0,0,2.2779,1.7084q-26.8218,47.0322-77.4473,66.6275a170.7985,170.7985,0,0,1-35.3069,8.542,8.9194,8.9194,0,0,0-4.5557-1.139q-66.61,1.3839-133.2549,1.7084a108.337,108.337,0,0,0-15.945,1.7084,6.325,6.325,0,0,1-5.1252-4.5557q-1.1445-149.1942,0-298.4a7.9786,7.9786,0,0,1,2.8473-3.9862,1465.9471,1465.9471,0,0,1,159.45,2.2778q98.78,19.1682,125.8519,116.74A53.261,53.261,0,0,1,2941.07,1320.6623Zm-159.45-100.2259q62.3051-.8714,101.9343,46.6962,36.4916,57.8975,13.6672,123.0045-20.5692,47.34-68.9054,65.4885a195.0433,195.0433,0,0,1-38.7236,7.9725q-50.7393,1.3839-101.3649-.5694-.29-121.2961.57-242.5923Q2735.1113,1218.2837,2781.6194,1220.4364Z"/><path class="cls-1" d="M3046.99,1212.4639c-.7858-3.3258-1.7426-6.7426-2.8474-10.25q-.5639,9.6867-1.1389,19.3618-.3073,57.8463-1.7084,115.6015,2.2724,72.624,0,145.2137a10.4414,10.4414,0,0,1,1.1389,9.6809q-15.3583.8543-30.7511.57a2.5377,2.5377,0,0,1-1.7084-1.139q-1.1445-147.4857,0-294.9831a10.1183,10.1183,0,0,1,3.9863-8.5419q11.1729-.3759,22.2091-1.7084a15.4617,15.4617,0,0,1,10.25,4.5557A204.7717,204.7717,0,0,1,3046.99,1212.4639Z"/><path class="cls-1" d="M2261.128,1187.4074a5.6461,5.6461,0,0,1-4.5558,2.8473c.376.3758.763.7632,1.139,1.1389q-15.4611.3246-30.7512,1.7084a562.2281,562.2281,0,0,0-61.5022-.5694,12.9526,12.9526,0,0,0-1.7084,3.9862,12.955,12.955,0,0,0-1.7084-3.9862,109.5809,109.5809,0,0,1-13.0977-1.7084q-60.2209,1.9134-121.2962,0-3.4,2.1012-6.8336,4.5557-2.1354-3.0068,1.139-5.1252a14.9453,14.9453,0,0,1-5.6947-1.7084Q2138.5789,1186.838,2261.128,1187.4074Z"/><path class="cls-1" d="M3433.0878,1312.69a354.5,354.5,0,0,1-.5694,61.5023,99.2,99.2,0,0,0-7.4031,25.6259c-1.1161,2.2893-2.6424,2.8587-4.5557,1.7084a33.2664,33.2664,0,0,0-.57,9.1114,66.7784,66.7784,0,0,0-8.542,15.9451h-3.4168q1.7427,7.3119-5.6946,7.9725a11.2,11.2,0,0,0-1.1389,6.8336,7.7635,7.7635,0,0,0-4.5558,1.1389q-1.9815,7.1241-9.1114,7.9725a5.6423,5.6423,0,0,1-.57,3.4168q-4.9713,3.0922-3.9862,7.9725-76.8608,57.539-168.5618,25.626-110.6529-48.98-98.5175-170.27,14.3-81.7638,89.4061-117.8793a125.9138,125.9138,0,0,1,25.0564-7.4031,41.5139,41.5139,0,0,0,14.8061-2.8473,163.9662,163.9662,0,0,1,19.3619-.57v3.4168a181.7352,181.7352,0,0,1,25.6259-1.1389c2.4714.8542,4.9431,1.8108,7.4031,2.8473a35.5551,35.5551,0,0,0-12.5283,2.8473,4.3394,4.3394,0,0,1-2.8473-2.2778q-2.8016,5.0568,2.8473,7.9725c.763-1.1389,1.5149-2.2779,2.2779-3.4168q2.6481,4.2025,6.8336,2.2779a3.503,3.503,0,0,1,1.1389,3.4168h4.5557a5.6423,5.6423,0,0,1,.57-3.4168q3.6387,6.4236,6.8336,0,2.8529,3.7584,6.8336,1.1389a5.21,5.21,0,0,0,2.8473,2.8473q-3.3827,1.0422-1.139,3.4168-3.0068,1.23-2.8473,3.9863c.763-1.5148,1.5149-1.5148,2.2779,0,.3759-.7632.763-1.5148,1.1389-2.2779a75.1354,75.1354,0,0,0,9.1115,1.1389q3.5022-1.1787,3.4168-3.4168c.5694.1937,1.1389.3758,1.7084.5695-1.5149.7631-1.5149,1.5147,0,2.2779a4.14,4.14,0,0,0-2.2779,2.2778q1.1958,5.8428,6.2641,3.9863l5.1252,1.7084c-.763.3758-1.5149.7631-2.2779,1.1389q5.3814,3.57,7.9726-2.8473a5.5313,5.5313,0,0,1,1.1389,4.5557,5.3737,5.3737,0,0,0,4.5557-2.2778,3.5026,3.5026,0,0,1,1.1389,3.4167c2.1072-.2619,3.0637.5011,2.8474,2.2779a4.0722,4.0722,0,0,0-1.7084-1.1389q-15.8027,1.9647,0,2.8473a7.9789,7.9789,0,0,1,2.8473,3.9863,4.0727,4.0727,0,0,1,1.7084-1.139q2.9725,2.2893,5.6946,4.5558a11.5345,11.5345,0,0,0-4.5557,3.9862,24.7726,24.7726,0,0,0,7.9725,7.4031q2.9214-3.7755,6.8336-.57a14.2308,14.2308,0,0,0-4.5557,2.8473q2.9554,4.681,3.9863-1.1389,1.2642,1.9476,2.8473,0l1.1389,1.1389q-5.9793,3.8439-.5694,7.9725c.3759-1.5147.7629-3.041,1.1389-4.5557,1.9475,1.6288,3.4738,1.2414,4.5557-1.1389a4.9621,4.9621,0,0,1-1.7084,5.6946c1.8452,2.21,3.9407,2.5854,6.2641,1.139.376.7631.763,1.5147,1.139,2.2778a7.82,7.82,0,0,1,1.7084-3.4168c.3759.3758.763.7632,1.1389,1.139a20.31,20.31,0,0,1,0,5.1252q-3.5023,1.8279-6.8336,3.9862c1.1389,1.5147,2.2779,3.041,3.4168,4.5557,1.4807-1.3894,2.62-1.0022,3.4168,1.139a11.7117,11.7117,0,0,0,1.7084-4.5557c1.0135,1.378,1.97,1.378,2.8473,0a7.7624,7.7624,0,0,0,1.1389-4.5558,5.6416,5.6416,0,0,1,3.4168.57,5.0635,5.0635,0,0,0,0,6.2641,11.71,11.71,0,0,1-4.5557,1.7084,1.8951,1.8951,0,0,1,.57,2.8473,21.25,21.25,0,0,0-7.4031,0c1.139,1.5148,2.2779,3.041,3.4168,4.5558q5.5352.2562,9.1115,5.6946a10.3185,10.3185,0,0,0-4.5558,3.4168q1.88,3.2289,4.5558,2.2779a20.8763,20.8763,0,0,1-2.2779,3.9862,2.8357,2.8357,0,0,0,3.4168,0c-.5011-1.7312.2505-3.0636,2.2779-3.9862q2.4771,6.5943,5.1251,0,5.6892,3.4167,0,6.8336a5.3337,5.3337,0,0,0-3.4167-2.2779q-8.2689,3.1434-2.2779,9.1114c.3759-1.5147.763-3.041,1.1389-4.5557a25.247,25.247,0,0,0,5.1252.57q-3.6558,3.5875,0,7.9725a6.2672,6.2672,0,0,1-4.5557-2.8473,8.4037,8.4037,0,0,0-2.2779,3.4168c1.5149,1.1389,3.0409,2.2778,4.5557,3.4168a3.853,3.853,0,0,0-3.4167,1.7084q1.1787,3.5022,3.4167,3.4167a10.59,10.59,0,0,1-2.2778,2.8474q.5981,2.05,1.7084,0a4.372,4.372,0,0,1-.5695,4.5557,37.1046,37.1046,0,0,1,3.4168,5.1252c-.763.3758-1.5149.7631-2.2779,1.1389.763,1.5147,1.5149,3.041,2.2779,4.5557q-2.05,7.722,3.4168,0a5.1287,5.1287,0,0,1-2.2779-1.7084q4.4763-2.9041,2.2779-7.403,5.262-2.2891,1.1389-7.4031a20.8763,20.8763,0,0,1,2.2779-3.9862c-2.5968-1.1731-3.3484-2.8815-2.2779-5.1252q5.3814-5.2278,10.25-.5695c-1.3438,2.1754-2.4828,1.9932-3.4168-.5694a8.82,8.82,0,0,1-4.5557,2.8473c1.5149,1.5147,3.0409,3.041,4.5557,4.5557a3.853,3.853,0,0,1-3.4168,1.7084,5.0951,5.0951,0,0,0,6.2641,0,13.33,13.33,0,0,1-.5694,8.542,3.039,3.039,0,0,0,2.2778,2.8473,14.6174,14.6174,0,0,0,2.2779-5.1252,67.9488,67.9488,0,0,1-.57-15.3755,14.3928,14.3928,0,0,1,2.2779,6.8335A3.009,3.009,0,0,1,3433.0878,1312.69Zm-240.3144,124.1435a285.8205,285.8205,0,0,1-20.5007-22.7787,171.9748,171.9748,0,0,1-18.7924-45.5572,172.69,172.69,0,0,1,5.6947-75.1694q4.4419-8.5078,8.5419-17.084a122.0549,122.0549,0,0,1,34.168-37.0153,143.7405,143.7405,0,0,1,21.64-10.82q74.7253-30.4266,138.95,18.7924,55.6427,56.5477,34.7374,133.8243-17.1352,52.4478-67.7664,74.6-13.4619,4.63-27.3343,7.9725Q3241.3772,1473.1822,3192.7734,1436.8333Z"/><path class="cls-1" d="M3422.8375,1271.6883a8.4545,8.4545,0,0,0-.57,6.8336,31.4181,31.4181,0,0,1,5.6946,20.5007c.376-.3758.763-.7631,1.139-1.1389a25.6047,25.6047,0,0,1,3.9862,14.8061,3.009,3.009,0,0,0-2.8473,2.2778,14.3928,14.3928,0,0,0-2.2779-6.8335,67.9488,67.9488,0,0,0,.57,15.3755,14.6174,14.6174,0,0,1-2.2779,5.1252,3.039,3.039,0,0,1-2.2778-2.8473,13.33,13.33,0,0,0,.5694-8.542,5.0951,5.0951,0,0,1-6.2641,0,3.853,3.853,0,0,0,3.4168-1.7084c-1.5148-1.5147-3.0408-3.041-4.5557-4.5557a8.82,8.82,0,0,0,4.5557-2.8473c.934,2.5626,2.073,2.7448,3.4168.5694q-4.8691-4.6467-10.25.5695c-1.07,2.2437-.3189,3.9521,2.2779,5.1252a20.8763,20.8763,0,0,0-2.2779,3.9862q4.1172,5.1081-1.1389,7.4031,2.1868,4.4931-2.2779,7.403a5.1287,5.1287,0,0,0,2.2779,1.7084q-5.4668,7.722-3.4168,0c-.763-1.5147-1.5149-3.041-2.2779-4.5557.763-.3758,1.5149-.7631,2.2779-1.1389a37.1046,37.1046,0,0,0-3.4168-5.1252,4.372,4.372,0,0,0,.5695-4.5557q-1.11,2.05-1.7084,0a10.59,10.59,0,0,0,2.2778-2.8474q-2.238.0855-3.4167-3.4167a3.853,3.853,0,0,1,3.4167-1.7084c-1.5148-1.139-3.0408-2.2779-4.5557-3.4168a8.4037,8.4037,0,0,1,2.2779-3.4168,6.2672,6.2672,0,0,0,4.5557,2.8473q-3.6558-4.39,0-7.9725a25.247,25.247,0,0,1-5.1252-.57c-.3759,1.5147-.763,3.041-1.1389,4.5557q-5.9965-5.9622,2.2779-9.1114a5.3337,5.3337,0,0,1,3.4167,2.2779q5.6892-3.4169,0-6.8336-2.6481,6.5943-5.1251,0c-2.0274.9226-2.779,2.255-2.2779,3.9862a2.8357,2.8357,0,0,1-3.4168,0,20.8763,20.8763,0,0,0,2.2779-3.9862q-2.6823.9567-4.5558-2.2779a10.3185,10.3185,0,0,1,4.5558-3.4168q-3.5707-5.45-9.1115-5.6946c-1.1389-1.5148-2.2778-3.041-3.4168-4.5558a21.25,21.25,0,0,1,7.4031,0,1.8951,1.8951,0,0,0-.57-2.8473,11.71,11.71,0,0,0,4.5557-1.7084,5.0635,5.0635,0,0,1,0-6.2641,5.6416,5.6416,0,0,0-3.4168-.57,7.7624,7.7624,0,0,1-1.1389,4.5558c-.877,1.378-1.8338,1.378-2.8473,0a11.7117,11.7117,0,0,1-1.7084,4.5557c-.7972-2.1412-1.9361-2.5284-3.4168-1.139-1.1389-1.5147-2.2779-3.041-3.4168-4.5557q3.3313-2.1525,6.8336-3.9862a20.31,20.31,0,0,0,0-5.1252c-.3759-.3758-.763-.7632-1.1389-1.139a7.82,7.82,0,0,0-1.7084,3.4168c-.376-.7631-.763-1.5147-1.139-2.2778-2.3234,1.4464-4.4189,1.0705-6.2641-1.139a4.9621,4.9621,0,0,0,1.7084-5.6946c-1.0819,2.38-2.6082,2.7677-4.5557,1.1389-.376,1.5147-.763,3.041-1.1389,4.5557q-5.3985-4.1172.5694-7.9725l-1.1389-1.1389q-1.5887,1.9476-2.8473,0-1.0253,5.8257-3.9863,1.1389a14.2308,14.2308,0,0,1,4.5557-2.8473q-3.9123-3.2118-6.8336.57a24.7726,24.7726,0,0,1-7.9725-7.4031,11.5345,11.5345,0,0,1,4.5557-3.9862q-2.7165-2.2722-5.6946-4.5558a4.0727,4.0727,0,0,0-1.7084,1.139,7.9789,7.9789,0,0,0-2.8473-3.9863q-15.8027-.8884,0-2.8473a4.0722,4.0722,0,0,1,1.7084,1.1389c.2163-1.7768-.74-2.54-2.8474-2.2779a3.5026,3.5026,0,0,0-1.1389-3.4167,5.3737,5.3737,0,0,1-4.5557,2.2778,5.5313,5.5313,0,0,0-1.1389-4.5557q-2.5968,6.4236-7.9726,2.8473c.763-.3758,1.5149-.7631,2.2779-1.1389l-5.1252-1.7084q-5.0568,1.8621-6.2641-3.9863a4.14,4.14,0,0,1,2.2779-2.2778c-1.5149-.7632-1.5149-1.5148,0-2.2779-.57-.1937-1.139-.3758-1.7084-.5695q.0855,2.2381-3.4168,3.4168a75.1354,75.1354,0,0,1-9.1115-1.1389c-.3759.7631-.763,1.5147-1.1389,2.2779-.763-1.5148-1.5149-1.5148-2.2779,0q-.1539-2.7505,2.8473-3.9863-2.238-2.3746,1.139-3.4168a5.21,5.21,0,0,1-2.8473-2.8473q-3.9807,2.6139-6.8336-1.1389-3.195,6.4236-6.8336,0a5.6423,5.6423,0,0,0-.57,3.4168h-4.5557a3.503,3.503,0,0,0-1.1389-3.4168q-4.1856,1.93-6.8336-2.2779c-.763,1.1389-1.5149,2.2779-2.2779,3.4168q-5.6549-2.9213-2.8473-7.9725a4.3394,4.3394,0,0,0,2.8473,2.2778,35.5551,35.5551,0,0,1,12.5283-2.8473c-2.46-1.0365-4.9317-1.9931-7.4031-2.8473a181.7352,181.7352,0,0,0-25.6259,1.1389v-3.4168a163.9662,163.9662,0,0,0-19.3619.57,41.5139,41.5139,0,0,1-14.8061,2.8473q87.675-23.9175,158.3114,33.5985a259.4861,259.4861,0,0,1,19.9313,21.07Q3416.186,1258.9834,3422.8375,1271.6883Z"/><path class="cls-1" d="M2261.128,1218.1585q-50.9616,1.418-102.5038,1.7084-1.6912,36.594-1.1389,73.4611a201.0081,201.0081,0,0,0-1.7084,21.64q-.649-46.5366-2.8474-92.8228a6.899,6.899,0,0,1,6.2642-6.2641,750.7936,750.7936,0,0,0,82.5724,0A45.4321,45.4321,0,0,0,2261.128,1218.1585Z"/><path class="cls-1" d="M2528.7767,1187.4074q13.1033-.2906,26.1954.5695a17.2027,17.2027,0,0,1,1.7084,5.1251q1.5888,100.2489-1.1389,200.4519-5.6549,45.9558-39.2931,78.0167a84.77,84.77,0,0,1-10.25,6.2642,4.8333,4.8333,0,0,1-2.2779-1.7084,9.5589,9.5589,0,0,1,4.5558-.57,5.6424,5.6424,0,0,1,.5694-3.4168q2.7507.6321,5.1252-2.2779a8.0848,8.0848,0,0,0,1.1389-5.6946h5.6947a4.988,4.988,0,0,0-1.1389-3.9863,10.1909,10.1909,0,0,0,5.6946-2.8473,11.6935,11.6935,0,0,1,1.7084-7.9725q2.8529,4.5615,5.6947,0,3.7242-4.8346-1.7084-4.5557a3.5028,3.5028,0,0,1,1.1389-3.4168,13.8619,13.8619,0,0,0,6.2641-3.4168,98.7767,98.7767,0,0,1,7.9725-15.9451q3.5366-18.7752,6.8336-37.5847.8542-97.3785.57-194.7571-6.8848-.8372-10.25,5.1251a5.6408,5.6408,0,0,1-3.4168.5695v-3.4168A20.8409,20.8409,0,0,1,2528.7767,1187.4074Z"/><path class="cls-1" d="M3046.99,1212.4639q.29,139.5247-.57,279.038a7.9785,7.9785,0,0,1-3.9863,2.8474,177.3541,177.3541,0,0,1-28.4732,0,3.7733,3.7733,0,0,1-2.2779-1.7084q15.3927.29,30.7511-.57a10.4414,10.4414,0,0,0-1.1389-9.6809q2.2724-72.59,0-145.2137,1.401-57.7438,1.7084-115.6015.5639-9.6867,1.1389-19.3618C3045.2477,1205.7213,3046.2045,1209.1381,3046.99,1212.4639Z"/><path class="cls-1" d="M2941.07,1320.6623a167.6877,167.6877,0,0,1-6.2641,70.6137q-5.8256,13.2058-11.9588,26.1954a2.1716,2.1716,0,0,1-2.2779-1.7084,97.69,97.69,0,0,0,10.82-23.3481,17.8187,17.8187,0,0,0,.5694-12.5282,16.604,16.604,0,0,0,5.1252-10.25q2.0843-23.2854,2.2779-46.6961A3.7729,3.7729,0,0,1,2941.07,1320.6623Z"/><path class="cls-1" d="M3167.7169,1276.244q-4.1,8.5762-8.5419,17.084a172.69,172.69,0,0,0-5.6947,75.1694,171.9748,171.9748,0,0,0,18.7924,45.5572,5.6415,5.6415,0,0,1-3.4168-.5694,119.6854,119.6854,0,0,1-17.6535-41.571,9.8716,9.8716,0,0,0-5.6946-6.8336,184.0091,184.0091,0,0,1,2.2778-52.3908,30.9581,30.9581,0,0,0,7.4031-15.945,13.1684,13.1684,0,0,0-3.4168-5.6947,12.0636,12.0636,0,0,0,2.8473-3.4168,1.8952,1.8952,0,0,0,2.8474.57,10.5079,10.5079,0,0,0,5.1251-8.542A21.1753,21.1753,0,0,1,3167.7169,1276.244Z"/><path class="cls-1" d="M1946.783,1193.102a233.23,233.23,0,0,1,37.0153,17.084,11.2378,11.2378,0,0,0,2.8473,5.6947,22.6855,22.6855,0,0,0-2.8473,9.1114,64.8979,64.8979,0,0,0-7.4031,11.9588,18.4178,18.4178,0,0,1-9.1114,0q-56.5308-32.3741-119.5877-14.8061-48.6039,22.2775-27.9038,71.1832a87.97,87.97,0,0,0,38.1541,23.348q33.57,8.525,67.197,17.084a190.2081,190.2081,0,0,1,50.1129,23.9176q24.396,21.9528,25.0565,54.6686-1.1958,47.9547-43.2794,70.6138a180.7207,180.7207,0,0,1-25.0565,10.25q-74.23,17.05-141.2274-18.2229a91.8886,91.8886,0,0,1-19.9313-16.5145,38.1323,38.1323,0,0,1,10.82-24.487,14.1683,14.1683,0,0,1,7.9725,0,111.7878,111.7878,0,0,0,25.0565,17.084q49.7142,21.8334,103.6427,12.5282,56.2062-14.18,40.432-70.0442a93.4224,93.4224,0,0,0-42.71-26.7649q-23.7468-6.4236-47.8351-11.3893a214.8192,214.8192,0,0,1-68.3358-29.6122,74.4248,74.4248,0,0,1-21.07-31.3206q-14.3676-66.61,46.1267-96.8091a2.7067,2.7067,0,0,0,2.2779,1.1389,191.5752,191.5752,0,0,1,86.5587-10.82,107.6081,107.6081,0,0,0,29.0428,6.2641A6.9978,6.9978,0,0,0,1946.783,1193.102Z"/><path class="cls-1" d="M3422.8375,1271.6883a284.0864,284.0864,0,0,1,13.0977,34.1679q15.2387,80.6363-37.5848,142.3664a87.52,87.52,0,0,1-15.3755,13.6671q-.9911-4.886,3.9862-7.9725a5.6423,5.6423,0,0,0,.57-3.4168q7.1238-.8541,9.1114-7.9725a7.7635,7.7635,0,0,1,4.5558-1.1389,11.2,11.2,0,0,1,1.1389-6.8336q7.4318-.6663,5.6946-7.9725h3.4168a66.7784,66.7784,0,0,1,8.542-15.9451,33.2664,33.2664,0,0,1,.57-9.1114c1.9133,1.15,3.44.5809,4.5557-1.7084a99.2,99.2,0,0,1,7.4031-25.6259,354.5,354.5,0,0,0,.5694-61.5023,25.6047,25.6047,0,0,0-3.9862-14.8061c-.376.3758-.763.7631-1.139,1.1389a31.4181,31.4181,0,0,0-5.6946-20.5007A8.4545,8.4545,0,0,1,3422.8375,1271.6883Z"/><path class="cls-1" d="M3223.5245,1228.4089a143.7405,143.7405,0,0,0-21.64,10.82,122.0549,122.0549,0,0,0-34.168,37.0153,21.1753,21.1753,0,0,0-5.1252,3.4168,10.5079,10.5079,0,0,1-5.1251,8.542,1.8952,1.8952,0,0,1-2.8474-.57,12.0636,12.0636,0,0,1-2.8473,3.4168,13.1684,13.1684,0,0,1,3.4168,5.6947,30.9581,30.9581,0,0,1-7.4031,15.945,184.0091,184.0091,0,0,0-2.2778,52.3908,9.8716,9.8716,0,0,1,5.6946,6.8336,119.6854,119.6854,0,0,0,17.6535,41.571,5.6415,5.6415,0,0,0,3.4168.5694,285.8205,285.8205,0,0,0,20.5007,22.7787,1.0324,1.0324,0,0,1-.57,1.1389,25.5338,25.5338,0,0,0-7.403-3.4168v4.5557c-2.1071-.2619-3.0637.5011-2.8473,2.2779a8.745,8.745,0,0,0,6.2641,3.9862q2.9212,4.4247,6.2641,8.542a4.82,4.82,0,0,0,0-4.5557c-.3759.3758-.763.7631-1.1389,1.1389q-3.2117-3.9123.5694-6.8336a41.8268,41.8268,0,0,1,4.5558,5.1252,11.7126,11.7126,0,0,1,4.5557,1.7084,4.0738,4.0738,0,0,1-1.1389,1.7084c1.4122.5239,2.369-.0456,2.8473-1.7084,2.0843,1.7084,4.18,3.4168,6.2641,5.1252-1.5149,1.1389-3.0408,2.2779-4.5557,3.4168a10.0191,10.0191,0,0,1,3.9862,3.9863c2.0046-1.0479,2.1867-2.38.5695-3.9863a18.3812,18.3812,0,0,1,1.7084-3.9863,52.0134,52.0134,0,0,1,14.2366,6.8336c.376.3758.763.7632,1.139,1.139a23.1293,23.1293,0,0,1-7.9725,1.1389,31.5179,31.5179,0,0,0,1.7084,9.1114q-7.0389-9.4133-11.9588,1.139a17.3877,17.3877,0,0,1,1.1389,3.9862,4.8514,4.8514,0,0,1-5.6946-1.1389,16.49,16.49,0,0,0,4.5557-5.6947c-1.5149-.3758-3.0409-.7631-4.5557-1.1389q5.0054-4.0146-1.139-3.4168c1.31,1.0365,1.1276,1.9931-.5694,2.8473q-7.1239-4.3564-15.3756-9.6809a33.4867,33.4867,0,0,0,0-7.403,12.4741,12.4741,0,0,0-5.1252,3.4168q-4.664-1.4692-.57-2.8474a16.7994,16.7994,0,0,1-2.2778-7.403c-3.8723.6379-6.3325-.8884-7.4031-4.5557l-1.1389,1.1389a23.3041,23.3041,0,0,0-5.1252-6.8336,4.0744,4.0744,0,0,1,1.1389-1.7084,36.5966,36.5966,0,0,1-6.8335-1.7084,29.0433,29.0433,0,0,1-6.8336,6.8336,126.6736,126.6736,0,0,1-9.1115-10.82,25.7128,25.7128,0,0,1,7.9725-11.9588q-3.1607-2.2721-5.1252,1.1389a10.4658,10.4658,0,0,0-7.9725,0q-5.1423-2.7333,0-4.5557c.376.7631.763,1.5147,1.139,2.2779a14.8054,14.8054,0,0,0,.5694-5.6947q4.1685.6492,2.2779-2.2779,5.74-2.8871,1.1389-6.8335a36.4515,36.4515,0,0,1-2.8473,4.5557,4.0716,4.0716,0,0,0-1.7084-1.1389,29.235,29.235,0,0,0-5.1252,4.5557q-7.2435-4.8347,0-9.1115,2.9041-5.0056-.57-9.1114c-1.2757,2.0387-2.8017,2.4145-4.5557,1.1389a34.72,34.72,0,0,1-4.5557-7.403q1.5031-3.69,5.6946-2.8474a33.69,33.69,0,0,1,1.7084-13.6671,12.9542,12.9542,0,0,1,3.9863-1.7084c-1.5149-1.5148-1.5149-3.041,0-4.5558a10.1925,10.1925,0,0,0-4.5557-3.4167,36.4289,36.4289,0,0,1,4.5557-2.8474,5.1294,5.1294,0,0,0-2.2779-1.7084q4.5272-3.3483,0-6.8336,4.3053-3.2631,0-6.2641a12.0609,12.0609,0,0,0,2.8474-3.4168c.3759.3758.763.7632,1.1389,1.139a16.2284,16.2284,0,0,0-1.7084-12.5283q4.6811-5.6036,1.1389-11.3893c.763-2.6536,1.5149-5.3188,2.2779-7.9725a4.0744,4.0744,0,0,0-1.1389-1.7084,41.1793,41.1793,0,0,0,5.1252-3.9863c.3759.3758.7629.7632,1.1389,1.139q2.6139-8.7641,3.4168,0a13.3906,13.3906,0,0,0,.5694-11.3893q-1.0932,1.23,0,3.4168c-.2619,1.6287-1.0249,2.1982-2.2778,1.7084a19.97,19.97,0,0,0-3.4168-7.4031q4.3223-3.0923,6.8336-9.6809c-.376-.5695-.763-1.1389-1.139-1.7084a17.037,17.037,0,0,0-9.1114,7.9725,5.1446,5.1446,0,0,1-3.4168-5.1252,12.718,12.718,0,0,0,0-7.9725,9.9931,9.9931,0,0,1,3.4168-4.5557,167.9787,167.9787,0,0,1,20.5008-10.82q5.7741,3.1947,1.1389,7.9726.9054,2.7333,3.4168,1.7084,4.117-5.5353-1.139-9.1115c.376-1.1389.763-2.2779,1.139-3.4168-1.139-.3758-2.2779-.7631-3.4168-1.1389a20.9077,20.9077,0,0,1,6.8336-.57,3.5028,3.5028,0,0,1,1.1389-3.4168,7.4894,7.4894,0,0,1,5.6947-.5694,18.6558,18.6558,0,0,0-1.139-5.1252c-.763.7631-1.5148,1.5147-2.2778,2.2778a24.2485,24.2485,0,0,0-1.139-2.8473,14.0313,14.0313,0,0,1,10.25-3.4168,8.4045,8.4045,0,0,0-3.4168-2.2778,3.731,3.731,0,0,0,2.2779-3.9863,10.6539,10.6539,0,0,1-6.8336-2.8473l1.7084-1.7084q2.1184,3.28,5.1252,1.1389a30.3051,30.3051,0,0,0,0-6.2641,19.4748,19.4748,0,0,0,8.542-8.542c.8314,1.8907,2.1524,2.46,3.9862,1.7084a25.0266,25.0266,0,0,1,10.25-8.542,14.23,14.23,0,0,1,4.5557,2.8473c-.3759.3758-.763.7632-1.1389,1.139a8.5374,8.5374,0,0,1,5.6946.5694q-6.3894,1.7085,0,4.5558a9.47,9.47,0,0,1,9.1115-1.7084c-1.9019,1.1389-3.7927,2.2778-5.6947,3.4168,2.8018,1.72,2.8018,3.2459,0,4.5557,1.3781,1.0136,1.3781,1.97,0,2.8473a12.068,12.068,0,0,0-3.4168-2.8473,8.2434,8.2434,0,0,0,2.2779-2.8473,127.5982,127.5982,0,0,0-13.6672-2.2779v3.4168a20.2067,20.2067,0,0,1,6.8336-.57,10.4534,10.4534,0,0,1,0,7.4031q-6.97-2.99-4.5557,3.9862a4.14,4.14,0,0,1-2.2779,2.2779q-6.321-.3077-12.5282-1.1389c-.2163,1.8792-.41,3.9634-.57,6.2641a8.3461,8.3461,0,0,1-5.1252,0v3.4168a12.76,12.76,0,0,1,7.9726,2.2778q13.1032-7.9782,26.1954-15.945A6.7789,6.7789,0,0,1,3223.5245,1228.4089Z"/><path class="cls-1" d="M2781.6194,1220.4364q-46.52-2.1527-92.8229,0-.8542,121.2962-.57,242.5923a3.7736,3.7736,0,0,0,2.2779,1.7084c-1.5149.7631-3.0409,1.5147-4.5557,2.2778,1.1845,1.8451,2.5056,2.0273,3.9862.57q3.4169,1.7084,0,3.4168a4.7444,4.7444,0,0,0-5.1252-.5695q-6.2011,6.5431-11.3893,0a2.3109,2.3109,0,0,1,2.2779-1.7084,19.6559,19.6559,0,0,1-4.5557-6.2641q2.2551-2.7848,4.5557.57a66.121,66.121,0,0,0,3.4168-7.4031c-1.1389-1.9021-2.2779-3.7926-3.4168-5.6946a12.7235,12.7235,0,0,0,1.1389-5.1252q-8.952-1.5548,0-3.4168a17.0222,17.0222,0,0,0-4.5557-3.9863c1.697-1.56,3.4054-1.7426,5.1252-.5694.1935-.57.3759-1.139.57-1.7084a7.6772,7.6772,0,0,0-5.6947-3.4168q9.8917-.8885,2.2779-6.8336,4.6638-4.1515-1.139-6.8336c1.5149-.3758,3.0409-.7631,4.5558-1.1389q-3.9807-3.7584,0-6.8336a20.874,20.874,0,0,1-2.2779-3.9863,5.7057,5.7057,0,0,0,0-6.8336c1.5149-2.2778,3.0409-4.5557,4.5557-6.8336q-4.8519-6.56,2.2779-3.9862a20.31,20.31,0,0,0,0,5.1252q1.1787-7.1924,2.2778-14.2367-1.7083-47.4251-1.1389-95.1007a16.5347,16.5347,0,0,1-9.1114-3.9862c1.5148-1.139,3.0408-2.2779,4.5557-3.4168a13.0245,13.0245,0,0,1-4.5557-4.5558q6.2013-2.0841,0-5.6946c1.1389-.3758,2.2778-.7631,3.4168-1.1389-1.5149-.7632-1.5149-1.5148,0-2.2779q-9.7721-1.3839-1.139-3.9863a5.5309,5.5309,0,0,0,1.139-4.5557,4.9875,4.9875,0,0,1,3.9862,1.1389q2.2211-7.8414-5.1252-10.82a9.5261,9.5261,0,0,0,6.2642-2.8473,123.5016,123.5016,0,0,1,2.8473-25.0565Q2734.3653,1217.4638,2781.6194,1220.4364Z"/><path class="cls-1" d="M2528.7767,1187.4074a20.8409,20.8409,0,0,0,11.3893,4.5557v3.4168a5.6408,5.6408,0,0,0,3.4168-.5695q3.3655-5.9622,10.25-5.1251.29,97.3785-.57,194.7571-3.297,18.81-6.8336,37.5847a98.7767,98.7767,0,0,0-7.9725,15.9451,13.8619,13.8619,0,0,1-6.2641,3.4168,3.5028,3.5028,0,0,0-1.1389,3.4168q5.4325-.2906,1.7084,4.5557-2.8528,4.5615-5.6947,0a11.6935,11.6935,0,0,0-1.7084,7.9725,10.1909,10.1909,0,0,1-5.6946,2.8473,4.988,4.988,0,0,1,1.1389,3.9863H2515.11a8.0848,8.0848,0,0,1-1.1389,5.6946q-2.3745,2.9043-5.1252,2.2779a5.6424,5.6424,0,0,0-.5694,3.4168,9.5589,9.5589,0,0,0-4.5558.57,4.8333,4.8333,0,0,0,2.2779,1.7084,81.7032,81.7032,0,0,1-17.084,9.6809q-68.609,26.48-133.2549-7.9725-48.2964-34.2023-51.8213-93.9618-.3246-12.3859-1.7084-24.4871-.2562-76.9461.5694-154.3251.564-7.3972,1.139-14.8061a7.82,7.82,0,0,1,1.7084-3.4168,249.4236,249.4236,0,0,1,33.029-1.1389,9.9823,9.9823,0,0,0,1.7084,5.6946q.5639,96.234,1.1389,192.4794,8.5419,79.9869,88.8366,78.5862,64.27,4.63,85.42-55.8076a275.898,275.898,0,0,0,5.6947-42.14q.5639-87.6918,1.1389-175.3953A6.12,6.12,0,0,1,2528.7767,1187.4074Z"/><path class="cls-1" d="M2810.0926,1492.6409a108.3356,108.3356,0,0,1-15.945,1.7084q-68.9.8541-137.8106.5694a108.337,108.337,0,0,1,15.945-1.7084q66.6445-.3245,133.2549-1.7084A8.9194,8.9194,0,0,1,2810.0926,1492.6409Z"/></svg>