<svg id="Layer_1" data-name="Layer 1" xmlns="http://www.w3.org/2000/svg" viewBox="0 0 1781 848"><defs><style>.cls-1{fill:#fff;fill-rule:evenodd;}</style></defs><path class="cls-1" d="M-.5-.5h124q69.8415,190.272,140,380.5-14.2125,39.141-29,78-33.5115,1.25-67-.5Q84.25,230.0415-.5,3.5Z"/><path class="cls-1" d="M329.5-.5h124q69.312,189.132,139.5,378a6.497,6.497,0,0,1,0,5q-14.2095,37.881-27.5,76-33.8625.49-67.5-1Q412.9965,228.735,329.5-.5Z"/><path class="cls-1" d="M733.5-.5h109q-34.2585,72.7074,27,124.5a221.6684,221.6684,0,0,0,29,19q39.6495,18.3255,80,35a367.9276,367.9276,0,0,1,85,52q79.455,73.461,58.5,180.5a156.386,156.386,0,0,1-15.5,47.5q-55.995,1-112,0,27.21-42.4605,12.5-90.5A136.4521,136.4521,0,0,0,956.5,315q-13.0005-7.5-26-15-45.321-21.411-91-42a304.4286,304.4286,0,0,1-75-51q-49.35-49.7355-48-120.5A227.3929,227.3929,0,0,1,733.5-.5Z"/><path class="cls-1" d="M1275.5-.5h118v848h-118Z"/><path class="cls-1" d="M1575.5-.5h135a347.5266,347.5266,0,0,1,60.5,139,537.4991,537.4991,0,0,1,9.5,68v45a425.0628,425.0628,0,0,1-46.5,171,248.6218,248.6218,0,0,1-23.5,35q-67.995,1.75-136,.5,61.275-71.68,76.5-165.5,21.675-133.107-45-250Q1591.555,20.3207,1575.5-.5Z"/></svg>